<svg id="Layer_3" data-name="Layer 3" xmlns="http://www.w3.org/2000/svg" viewBox="0 0 471.88 471.89"><defs><style>.cls-1{fill:#414042;}.cls-2{isolation:isolate;}.cls-3{fill:#9e9d9e;}.cls-4{fill:#595a5c;}.cls-5{fill:#eb0d8c;}</style></defs><title>Logo</title><path class="cls-1" d="M174,420.17a645.24,645.24,0,0,1-62.5-54.78c-58.91-8-68-9.23-73.49-4.25-8.07-11-14.46-21.58-18.45-30.76l.1.23,1.74,3.9A170.64,170.64,0,0,0,38.88,363c4-5,15.63-3.36,71.93,4.6A639.41,639.41,0,0,0,172,421.15C217.35,455.78,253.7,472,273.18,469h0l3.42-.56C257,471.73,220.16,455.35,174,420.17Z"/><path class="cls-1" d="M165.78,423.78a616,616,0,0,1-57-49.65c-60.64-9.51-64.26-10.07-67.24-5.66a175.49,175.49,0,0,1-14.17-22l2.08,3.8a181.18,181.18,0,0,0,13,19.86c1.54-4.44,7.6-3.45,65.68,6a609.56,609.56,0,0,0,55.67,48.38c42.47,32.4,76.7,48,95.75,46.16l2.54-.26h0l.94-.1C243.81,472.53,209,456.74,165.78,423.78Z"/><path class="cls-1" d="M157.75,426.75a588.65,588.65,0,0,1-51.6-44.61C49.56,372,49.56,372,45.52,373.73c-.06.38-.14.9-.19,1.28-2.93-3.87-5.6-7.68-8-11.36l1.28,2,2,3c1.76,2.61,3.68,5.27,5.71,7.95a4.56,4.56,0,0,0-.17-.88c2.45-2.26,2.45-2.26,59.37,8.4a576.05,576.05,0,0,0,50.26,43.39c39.26,29.94,71.21,44.91,89.71,44.3h0l3.5-.16C230.31,472.45,197.81,457.31,157.75,426.75Z"/><path class="cls-1" d="M103.67,389.43C51,378.63,51,378.63,49,379.39c.08.3.17.7.25,1.05l.82,1v-1c2.38-.25,2.38-.25,53,10.65a546.84,546.84,0,0,0,45,38.57c36.07,27.51,65.61,41.7,83.49,42.14H235c-18.06-.16-48.19-14.6-85.05-42.75A551.58,551.58,0,0,1,103.67,389.43Z"/><path class="cls-1" d="M101.33,396c-48.6-11.47-48.6-11.47-48.85-11.47l.84,1.05c1.11-.21,1.24-.24,12.31,2.79,17.58,4.81,22,5.89,35.12,9.13a517.3,517.3,0,0,0,39.85,33.92c32.71,24.94,59.75,38.35,76.83,39.75h0l3.63.26c-17.28-1.12-45-14.73-78.62-40.39A521.69,521.69,0,0,1,101.33,396Z"/><path class="cls-1" d="M401.27,86.22a19,19,0,0,0-1-2.54c-.61-1.4-1.36-2.94-1.83-3.86-.62-1.32-1.27-2.63-1.93-3.91.65,1.27,1.27,2.56,1.87,3.88C401,86.05,401.11,86.15,401.27,86.22Z"/><path class="cls-1" d="M401.86,86.57a22.66,22.66,0,0,0-1.11-2.64c-.69-1.44-1.53-3-2.09-4q-1.05-2-2.16-4,1.08,2,2.09,4C401.63,86.44,401.73,86.49,401.86,86.57Z"/><path class="cls-1" d="M402.43,86.9a22.5,22.5,0,0,0-1.26-2.73c-.76-1.47-1.68-3.13-2.24-4.09-.78-1.39-1.57-2.78-2.39-4.17.8,1.36,1.58,2.74,2.33,4.17C402.23,86.78,402.29,86.81,402.43,86.9Z"/><path class="cls-1" d="M403,87.18a29.49,29.49,0,0,0-1.41-2.81c-.83-1.52-1.82-3.19-2.44-4.17-.85-1.45-1.71-2.88-2.6-4.28q1.31,2.1,2.55,4.25C402.81,87.08,402.83,87.11,403,87.18Z"/><path class="cls-1" d="M403.52,87.43c-.28-.68-1-1.94-1.54-2.88h0c-.9-1.53-2-3.25-2.63-4.26l-2.81-4.38q1.41,2.16,2.76,4.36C403.36,87.36,403.36,87.36,403.52,87.43Z"/><path class="cls-1" d="M430.3,337.24c.51-2,.4-2.86-.4-3.12-2.52.32-5.07,6.14-4.76,8,.22,1.26,1.58,1.51,3.82-1.95,8,.53,14.32-.94,18.76-4.43A145.09,145.09,0,0,1,441,353l1.8-3.23a146.64,146.64,0,0,0,6.41-17.11C444.78,336.26,438.38,337.8,430.3,337.24Z"/><path class="cls-1" d="M424.65,349.06c.61-1.92.52-2.81-.28-3.06-2.65.31-5.45,5.93-5.21,7.84.15,1.22,1.52,1.47,4-1.89,7.47.49,13.55-.73,18-3.67-2.08,6.78-2.08,6.78-8,17.6l2.09-3.12c3.37-5.33,3.37-5.33,7.7-17.52C438.38,348.27,432.25,349.56,424.65,349.06Z"/><path class="cls-1" d="M418.41,360.53c.69-1.87.65-2.74-.16-3-2.67.29-5.83,5.82-5.66,7.62.12,1.19,1.52,1.44,4.17-1.82,6.9.45,12.61-.54,17-3-2.61,7.3-2.61,7.3-9.44,17.93l2.28-3.08c4.07-5.67,4.17-5.9,9.08-17.84C431.25,360,425.44,361,418.41,360.53Z"/><path class="cls-1" d="M437.4,113c-.39-.64-.79-1.31-1.22-2Z"/><path class="cls-1" d="M390.3,57.36l-1-.85h0c.66,2.69,3.3,9.38,7.29,19.4C390.15,59.08,390.26,57.84,390.3,57.36Z"/><path class="cls-1" d="M393.49,60.69l.71.12-1-.86h0l-.52.1c.09,3.2.76,5.69,3.87,15.89C393.08,64.17,393.3,62.32,393.49,60.69Z"/><path class="cls-1" d="M396.54,75.91c.1-.76.18-1.41.25-2C396.72,74.52,396.64,75.09,396.54,75.91Z"/><path class="cls-1" d="M447.5,134.26h0c-2.23-7.3-4.23-11.12-8.6-18.77L437.4,113c5.78,9.65,7.39,14.68,8.7,18.77,1.11,4,1.31,7.3.71,9.73C428,111.84,408.31,89.4,396.54,75.94c27.6,31.51,40.18,50.43,51.66,68.59C448.88,141.94,448.68,138.53,447.5,134.26Z"/><path class="cls-1" d="M441.59,124.38c-2.13-7.77-7.73-17.73-15.53-28.31l-.72-1h0c-1.28-1.73-3.06-4-4.37-5.7,14.51,18.42,17.72,28.32,19,32.56a17.75,17.75,0,0,1,.71,7.73C423.66,105.49,408,88.39,396.54,75.91,422,103.65,432.77,119,442.31,132.58A18.09,18.09,0,0,0,441.59,124.38Z"/><path class="cls-1" d="M435,114.8c-3.66-13.32-19.68-34.41-38.52-51.82a3.58,3.58,0,0,0-.64-.18c-1.34,1.77-1.1,3.76.7,13.11-1.57-8.6-1.15-10-.59-12.06l1-.24C414.72,80,429.78,99.9,433.24,112.45a15.41,15.41,0,0,1,.66,5.88c-13.71-17.48-23.7-28.15-37.37-42.42a500.65,500.65,0,0,1,39.14,45.21A15.73,15.73,0,0,0,435,114.8Z"/><path class="cls-1" d="M427.72,105.53h0c-3.48-10.93-13.94-25.13-29.48-40h0c-2.21.89-2.08,3.85-1.7,10.35-.39-7.61.4-8.34,2-9.68,13.37,12.51,24.62,27.52,27.25,37a13.13,13.13,0,0,1,.54,4.18C414.61,94,407,86.39,396.54,75.91c16,16,21.25,22.06,31.75,34.2A13.63,13.63,0,0,0,427.72,105.53Z"/><path class="cls-1" d="M420.17,99.65a10,10,0,0,0-.43-3c-1.95-7.28-10.52-18.69-20.71-28.36-1.48,1.34-1.75,2-2.25,5.62.35-2.3.72-2.83,2.29-4.91,9.13,8.68,16.76,18.91,18.56,25.45a10,10,0,0,1,.39,2.66c-7.92-8.25-8.94-9.23-21.49-21.21C407.5,86.39,409.45,88.41,420.17,99.65Z"/><path class="cls-1" d="M411.09,88.07c-.61-2.08-3-7.82-12.26-16.92a19.63,19.63,0,0,0-2.29,4.72,25.91,25.91,0,0,1,2.09-4C401.1,74.3,407,80.45,408.81,86a5.44,5.44,0,0,1,.22,1.33c-3.7-3.48-8.71-8-12.51-11.46C401,80,407,85.52,411.33,89.71A7.64,7.64,0,0,0,411.09,88.07Z"/><path class="cls-1" d="M401.72,80c-.41-1.48-2.09-3.75-4.12-5.73l-1.05,1.66.59-.88a8.5,8.5,0,0,1,2.15,3v.25l-2.78-2.36,5.22,4.57A2.8,2.8,0,0,0,401.72,80Z"/><path class="cls-1" d="M329.29,434.13c4.78-12.13,5.8-15.64,9-31.43,1.54-1.46,3.07-3,4.59-4.48,61.86-61.62,92.26-150.71,84.9-229.36-4.78-14-5-14.66-16.21-47a138.48,138.48,0,0,1-12.42-8.52,199.82,199.82,0,0,1-33.95-33.15L366,79c-3.39-1.11-5,.24-5.93,1.05a5,5,0,0,0,2.87.89,233.29,233.29,0,0,0,36,34.61,146.76,146.76,0,0,0,12.78,8.78c12,35.45,12,35.45,15.29,45.38,6.32,78-24.49,166.31-86,227.62-1.86,1.84-3.73,3.64-5.6,5.42A137,137,0,0,1,326,435.63c15.9,4.8,28.15,4.81,35.89-.05l2.95-1.89C357.25,438.68,345.08,438.79,329.29,434.13Z"/><path class="cls-1" d="M316.17,440c6-13.17,7.37-19.81,10.43-37.23q4.32-4,8.59-8.22c60.54-60.31,92.57-146.17,89.29-222.41-4.17-13.47-8.44-26.92-12.66-40.38q-6.4-3.95-13.69-9.49c-23.08-17.52-45.4-42.12-57-62.08l1.54-.67s-3.94-2.89-7.88-.66A18.46,18.46,0,0,0,337.9,60c12.63,20.75,35.9,46.31,59.85,64.64,4.91,3.75,9.58,7,13.92,9.67q5.91,19.33,11.86,38.68c2.26,75.63-30.16,160.68-90.36,220.67-3.13,3.12-6.37,6.19-9.6,9.13-3.32,20.92-5.09,25.62-10.76,38.67,16.27,5.3,28.92,5.79,37,1.36l3.06-1.72C344.92,445.56,332.36,445.19,316.17,440Z"/><path class="cls-1" d="M302.86,445.15c7.39-14,9.38-27.38,11.66-42.91q6.32-5.64,12.57-11.83c59.22-59,92.79-141.61,93.46-215.33-6-21.19-6-21.19-9.51-33.46-4.54-2.87-9.39-6.26-14.47-10.12a261.86,261.86,0,0,1-46.92-46.28l.38-1.49c-2.74-1.33-4.64-.23-6.26.89,0,.47.09,1,.13,1.57a9.4,9.4,0,0,0,3,.31,317.58,317.58,0,0,0,49.22,47.33q7.69,5.88,14.59,10.25c2.55,9.27,3.62,13.13,8.79,31.65C417.82,248.81,383.91,330.62,325,389.3Q318.29,396,311.39,402c-2.89,24.11-6.41,32.54-11.91,44.29,16.58,5.8,29.56,6.75,38,2.75l3.13-1.51C332.3,451.66,319.37,450.88,302.86,445.15Z"/><path class="cls-1" d="M289.46,449.52c7.57-14.6,9.9-25.36,12.67-48.41q8.42-7.22,16.62-15.39c57.91-57.69,92.87-137.06,97.38-208.19-2.08-7.82-4.73-18.27-6.74-26.07-4.68-3-9.63-6.51-14.81-10.42-30.3-23.12-59.73-55.45-75.17-81.79l1.49-1.19c-1-1.19-3.52-1.6-7.3-1.23l-1,1.46a15.34,15.34,0,0,0,3.44,1c16.43,27,46.72,60.29,77.9,84.07,5.21,3.95,10.13,7.46,14.82,10.5,1.82,7.3,4.26,16.95,6.1,24.21-5.43,70.47-40.73,149-98.31,206.42q-8.7,8.67-17.62,16.26c-2.79,25.26-5.21,34.57-12.88,49.75,16.75,6.25,30,7.66,38.7,4.17l3.2-1.33C319.35,457,306.24,455.66,289.46,449.52Z"/><path class="cls-1" d="M276,453.15c10-16.5,11.75-35.44,13.47-53.78q10.42-8.7,20.59-18.83c56.6-56.39,92.88-132.54,101-201-1.3-5.52-3-12.88-4.29-18.4q-7-4.63-14.7-10.48c-21.7-16.57-43-37.38-59.28-58.87V90.25s-3.83-2.46-7,1.65l.52,1.52a9.31,9.31,0,0,0,3.36.38,398.42,398.42,0,0,0,61.72,59.36c5.06,3.86,9.94,7.3,14.59,10.43,1.11,4.93,2.62,11.46,3.73,16.42-9,67.76-45.61,143.1-101.88,199.12q-10.67,10.64-21.59,19.69c-2.61,35-8,44.76-13.62,55.1,16.85,6.65,30.23,8.51,39.22,5.5l3.25-1.13C306.17,461.46,292.81,459.7,276,453.15Z"/><path class="cls-1" d="M262.52,456.09c9.1-15.39,11.85-27,14-59Q288.9,387,301.06,374.88c55.25-55.08,92.78-128,104.37-193.7l-2.19-10.34q-6.8-4.59-14.12-10.16c-37.13-28.34-73.22-68-91.8-100.5l.91-1.49s-3.46-2.93-8.53-.3l.39,1.61a15.33,15.33,0,0,0,3.35.82c20,32.89,56.89,73.41,94.87,102.37q7.21,5.49,13.92,10l1.71,8.25c-12.46,65-50.2,137.12-105.17,191.83-8.41,8.34-16.94,16.06-25.5,23-1.64,39.34-8.25,50.47-14.09,60.28,16.85,7,30.34,9.3,39.53,6.78l1.2-.33h0l2.09-.6C292.87,465.18,279.39,463,262.52,456.09Z"/><path class="cls-1" d="M454.6,159.94c-9.09-16.74-12.51-22.2-24.67-40.28a5.78,5.78,0,0,1-2.17.71c-1.41-2.4-1.69-2.63-1.95-2.86,0,.07,3.43,8.19,4.66,8.53a15.38,15.38,0,0,0-1.15-2.75,6.2,6.2,0,0,0,2.22-.7c13,19.81,16,25.09,24.17,40.49,1.14-3.13,1-7.6-.56-13.31-.87-3.12-1-3.32-3.44-9.43h0l-1.89-4.17a70.5,70.5,0,0,1,4.17,11C455.5,152.62,455.65,156.88,454.6,159.94Z"/><path class="cls-1" d="M462,185.5c-7.3-17.12-10.19-22.81-20.68-41.83a10.48,10.48,0,0,1-3.75.7c-1.15-2.51-1.45-2.77-1.78-3-.37,1.27,2.25,7.8,3.27,9.06l.3-.14a9.44,9.44,0,0,0-.62-2.83,11.4,11.4,0,0,0,3.79-.65c11.26,20.85,13.65,26.27,20.2,42,2.54-5.85,1.76-10.13,0-17.8-.26-.91-.52-1.81-.81-2.72C464.06,175.93,464,181.66,462,185.5Z"/><path class="cls-1" d="M445.77,156.07a11.48,11.48,0,0,1-1.95.43c-1-2.54-1.37-2.77-1.7-3-.34.37,1.46,7.85,3.13,9.3.17-.29.33-.57-.37-3.12a12.84,12.84,0,0,0,1.84-.4c10.43,21.27,12.51,26.8,18.3,42.74,2.48-3.84,3-9.73,1.09-17.72l-.8-3.48c2,8,1.61,14-.78,17.88C458.14,181.33,455.46,175.52,445.77,156.07Z"/><path class="cls-1" d="M462.76,171c-.08-.3-.17-.61-.25-.9l-1.17-3.92c.22.71.43,1.41.61,2.09C462.24,169.17,462.5,170.08,462.76,171Z"/><path class="cls-1" d="M458.82,159c-.17-.44-.33-.89-.49-1.33,2.08,8,1.54,11,.39,15-8.16-16.93-11.36-22.51-22.66-41.07a9.81,9.81,0,0,1-5.05.69c-1.21-2.47-1.51-2.75-1.82-3-.15.74,2.36,7.88,3.82,8.95a7.8,7.8,0,0,0-.73-2.93,10.24,10.24,0,0,0,5.22-.68c12.13,20.31,14.79,25.7,22.15,41.29,1.93-4.91,1.14-9.11-.32-15.53h0c-.46-1.66-1.23-3.8-1.77-5.43l-1.37-3.67a66.92,66.92,0,0,1,2.17,6.45A10.56,10.56,0,0,0,458.82,159Z"/><path class="cls-1" d="M294.25,33.16c.29,1.05.62,2.09,1,3.24,23.08,8.77,23.08,8.77,74,28.86,5.46,9,15,19.92,25.25,28.68a78.13,78.13,0,0,0,2-18,76,76,0,0,1-2.08,16c-9.38-8-17.93-17.92-22.87-26.12-42-17.06-49.54-20.07-73.35-29.34-.31-.95-.6-1.88-.85-2.8-3.73-13.55.16-20.34,9.63-20.63,30.89,9.52,49.65,23.18,60.84,31.34.45.16.91.34,1.38.53a13.43,13.43,0,0,0,2.52,1.92s-4-4.17-5.87-4.9l1.27,1.18c-.43-.19-.87-.35-1.3-.51C342.09,24.48,318.48,16.66,304.37,12,294.49,12.19,290.4,19.16,294.25,33.16Z"/><path class="cls-1" d="M380.92,68.65C344,51.83,327.59,44.82,310.2,37.38c-.14-.43-.25-.86-.36-1.28-3.24-11.7-.08-17.79,7.78-18.42,30.14,11,47.74,25.56,58.26,34.34a31.44,31.44,0,0,1,4.38,1.89c1.34,1.42,1.34,1.42,1.91,1.75,0,0-3.13-4-4.66-4.79l1,1.19a33.55,33.55,0,0,0-4.64-2C351.7,30.71,328.74,21.8,315,16.48c-8.26.56-11.59,6.82-8.24,19,.15.53.31,1,.48,1.62,16.74,7,32.57,13.56,71.38,30.76,3.42,5.79,9.39,12.78,16,18.59a68.51,68.51,0,0,0,2-10.53,67,67,0,0,1-1.85,8.88A73.25,73.25,0,0,1,380.92,68.65Z"/><path class="cls-1" d="M390.06,72.5c-29.38-15.11-46.71-23.3-68-33.23h0c-2.74-9.94-.24-15.27,6.16-16.11C357.6,35.59,372.77,50,383.85,60.52c.36.11.75.26,1.15.42a25.89,25.89,0,0,0,2.09,2.23,46.71,46.71,0,0,0-5.49-6.26c.34.44.48.63,1.57,1.88-.44-.18-.86-.33-1.25-.46-20.65-20.57-42.95-30.61-56.3-36.6-6.76.8-9.38,6.31-6.55,16.68a1.35,1.35,0,0,0,.09.33c21,9.57,38.19,17.53,68.67,32.73a40.81,40.81,0,0,0,7.49,8.92c.5-1.56.92-3,1.27-4.46-.29,1-.62,2.08-1,3.13A29.73,29.73,0,0,1,390.06,72.5Z"/><path class="cls-1" d="M396.39,75.69h0l.15.22c-.28-.43-.56-.85-.85-1.26C395.9,75,396.16,75.35,396.39,75.69Z"/><path class="cls-1" d="M346.75,34.22c-3.9.92-5.48,4.44-4.08,10.63,23.08,12.6,34.66,19.29,53.87,31.06-17-10.7-28.45-17.42-51-30-1.25-5.71.22-9,3.82-9.9,25.4,15.19,34.05,24.6,47.16,39.93C379.84,56.05,371,48.65,346.75,34.22Z"/><path class="cls-1" d="M357.25,41.51c-2.74.84-3.89,3.44-3,7.85C375.63,62.17,381,65.68,396.54,75.91c-17.32-11.68-24.69-16.22-39.48-25.27-.74-4,.32-6.4,2.8-7.2,16.82,11.47,22,16.05,36.68,32.47C381,58.31,376,54.28,357.25,41.51Z"/><path class="cls-1" d="M114.7,429.72l-.29.31c.42,1.53,3.76,2.59,4.62,2.73,1.1.19,1.27,0,1.59-.32-.2-.63-.2-.63-.81-1.16a9.48,9.48,0,0,0-3.54-1.57c-7-5.52-14-11.41-20.86-17.54-22.53-8.34-27.94-11.84-31.89-15l.87.92c5.51,5.21,21.15,11.28,30.5,14.92C101.38,418.87,108,424.45,114.7,429.72Z"/><path class="cls-1" d="M103.32,428.12l-.17.2c.8,1.21,3.85,2.4,3.88,2.41,1,.34,1.13.27,1.46.16-.14-.4-.14-.4-.64-.83a12.48,12.48,0,0,0-3-1.61c-4.55-3.58-9.07-7.3-13.56-11.22-13.19-6.56-15.53-8.49-20.64-12.72l1,.93c5.21,4.76,11.09,7.86,19.19,12.15C95,421.24,99.22,424.76,103.32,428.12Z"/><path class="cls-1" d="M112.65,436.06c-.71-.44-1.36-.81-2.72-1.5-2.34-1.65-4.72-3.4-7.16-5.22-4.52-3.45-9-7.12-13.48-10.94-8.43-5.07-9.94-6-14.83-10.18l.6.55.4.38a80.9,80.9,0,0,0,13.34,9.38c4.17,3.58,8.41,7,12.66,10.26q3.54,2.7,6.92,5.1l-.52-.19c.38.61,3.56,2.23,3.59,2.25h0c1.39.7,1.62.72,1.9.74A2.11,2.11,0,0,0,112.65,436.06Z"/><path class="cls-1" d="M463.79,279c-3.86,3.12-9.38,4.41-16.42,3.95,0-.77.15-3.13-.88-3.31-.18,0-5.05,7.13-2,9.53.68-.23,1.26-.42,2.21-3,7.23.47,12.91-.92,16.82-4.17,5.94-21.4,6.38-30.39,7.35-50a59.35,59.35,0,0,0,.65-8l-.22-3.67a26.36,26.36,0,0,1-.67,8.85C470.29,252,468.25,260.45,463.79,279Z"/><path class="cls-1" d="M471.35,240.17c-1.23,23.28-3.6,31.81-8.79,50.5-6.33,6-17.84,6.61-33.36,1.92a294.34,294.34,0,0,0,10.68-56.9c1.23-1.68,1.92-7.3-.22-9.28-2.37.67-2.31,7.12-1.15,9.16a277.47,277.47,0,0,1-11.64,59.74c16.57,5.22,28.77,4.73,35.29-1.73,6.79-21.53,7.56-30.66,9.27-50.67a27.92,27.92,0,0,0,.45-5v-3.46A27.44,27.44,0,0,1,471.35,240.17Z"/><path class="cls-1" d="M420.75,303.58c.11-.79.44-3.2-1-3.82-2.09-.91-5.29,4.79-4.39,7.93.35,1.22,1.92,2.67,4.27-1,19.49,6.77,33.56,6.25,40.4-1.74,6.26-17.72,8.1-27.19,9.91-41.18-1.94,14.83-4.6,23.36-9.31,38.38C453.76,309.79,439.89,310.23,420.75,303.58Z"/><path class="cls-1" d="M468.77,274.33l.11-.75-.21,1.24A4.67,4.67,0,0,0,468.77,274.33Z"/><path class="cls-1" d="M468.67,274.82c-1.19,5.88-2.09,10.22-2.87,13.81C466.87,284.42,467.83,280,468.67,274.82Z"/><path class="cls-1" d="M468.88,273.58c.36-2.27.72-4.65,1-7.23Z"/><path class="cls-1" d="M437,320.48c.12-.63.42-2.28-.1-2.91-1.62-2-5.11,5.48-4.59,8,.21,1,1.39,1.88,3.57-2,9.9.64,17.17-1.87,21.31-7.6,5-13.55,6.48-17.77,8.59-27.3-2,7.92-4.5,15.06-7.81,24.57C453.84,318.7,446.69,321.11,437,320.48Z"/><path class="cls-1" d="M380.58,422.42c14.28-14.18,18.09-22.41,23.66-43.4a83.79,83.79,0,0,1-14.37-2.92c.83-1.88.74-2.86-.29-3.36-3.13-.38-6.53,4.09-6.76,6.26-.2,1.93,1.71,2.79,5.09-.27a83.88,83.88,0,0,0,13.85,2.86c-5.94,21.9-10.2,29.54-24,43a17.92,17.92,0,0,0,1.59-1.1h0l2.81-2.17C381.64,421.72,381.1,422.09,380.58,422.42Z"/><path class="cls-1" d="M241.29,30.33c8.1,29.42,39.44,73.53,78.76,113.81-40,37.48-89.27,85-136.52,132.08-9.26,9.23-18.09,18.08-27.11,26.22-1.53-.14-5.11-.51-5.75,3.41a4.86,4.86,0,0,0,4,5.62,4.79,4.79,0,0,0,3.23-.56c2.45-1.89,1.91-4.1,1.47-5.88q12.51-12.6,26.46-26.47c48-47.86,97.84-96.51,137.76-134.76-39.43-40.07-71-84.26-79.07-113.64-5.87-21.3,1.76-30.69,18.76-28.59l-3.58-.38C242.88-.54,235.41,9,241.29,30.33Z"/><path class="cls-1" d="M117.26,350.17c2.15,3.41,5.21,2.59,5.87,2.18.89-.53,2.81-2.78,0-6.1-3-2.56-5.53-1.48-6.39.86C57,341,42.8,339.52,32.52,345.26c-11.36-16-19.59-31-23.13-43.1L10.55,306c3.69,11.72,11.7,26.12,22.61,41.46C37.49,344.61,44,340.28,117.26,350.17Z"/><path class="cls-1" d="M106.19,338.51c2.09,3.38,4.86,2.65,5.67,2.13,0,0,3.12-2.32,0-6.25-2.92-2.6-5.34-1.43-6.14,1-50-4.4-64-4.92-75.51.58C18.34,318.87,9.85,303,6.35,290.33q-.34-1.27-.63-2.46l.83,3.52c.12.54.27,1.11.42,1.67,3.48,12.56,11.94,28.33,23.76,45.23C35.36,335.75,44,331,106.19,338.51Z"/><path class="cls-1" d="M228.44,31.23c8.15,29.56,38.42,73.11,77.05,113.92-40.08,34.5-86.9,77.78-131,121.69a18.08,18.08,0,0,1-4.68,3.71c-4.86-.74-6,2.69-6.17,3.76a4.82,4.82,0,0,0,7.3,5.13c2-1.3,2.58-3.4,1.8-6.25l4-4c44.89-44.71,92.33-89,132.41-124.25-38.84-40.73-69.42-84.45-77.55-114C225.75,9.51,232.73-.54,248.9.36L246.21.24h-.9C229.36-.45,222.53,9.77,228.44,31.23Z"/><path class="cls-1" d="M27.12,318.11c6-2.39,17.21-6.84,61.26-3.12,2,3.53,4.55,2.62,5.31,2,0,0,3-2.62,0-6.65-2.71-2.61-5-1.38-5.75,1.31-37.13-1.74-48.59-1-61.1,3.74-11.85-17.63-20.29-34-24-47.3a55.61,55.61,0,0,1-1.81-9.32l.39,3.68a56.58,56.58,0,0,0,1.7,8.44C6.82,284.19,15.28,300.51,27.12,318.11Z"/><path class="cls-1" d="M202.83,34.9c8,29.05,35.36,70.33,71.36,110.82A1186.76,1186.76,0,0,0,157.1,247.89a18.77,18.77,0,0,1-4.65,3.71c-4.71-.76-5.85,2.69-6.09,3.77-.86,3.93,3,7.59,7,5.22,2-1.33,2.58-3.45,1.89-6.31,1.32-1.33,2.64-2.66,4-4a1267.77,1267.77,0,0,1,119-104.54C241.82,105.08,214,63.46,206,34.3c-6-21.8,0-33,15-33.8l-3.49.25C202.74,1.79,196.77,13.07,202.83,34.9Z"/><path class="cls-1" d="M25.33,295.75c11.35-3.9,20.72-4.73,41.41-5.12,1.31,3.33,3.71,3.44,4.94,2.24,0,0,2.64-2.87-.06-6.93-2.46-2.59-4.48-1-5.14,1.7-23.05.42-29.84,1.54-41.23,5.21C14,275.31,5.92,259.08,2.21,245.62A53.47,53.47,0,0,1,0,230.85v3.52a53.76,53.76,0,0,0,2.18,14.08C5.85,261.89,14,278.16,25.33,295.75Z"/><path class="cls-1" d="M25.58,271.67c9.84-2.84,13-3.27,25-4.61.91,3,3.07,3.54,4.39,2a6.42,6.42,0,0,0,.06-7.15c-2.34-2.7-4.17-.34-4.65,2.08-13.55,1.51-15.47,2-24.57,4.56C15.42,251.68,8,236.12,4.35,222.94c-2.19-8-2.86-14.6-2.15-19.81l-.45,3.41c-.61,5.16.06,11.57,2.18,19.24C7.57,239,15.11,254.67,25.58,271.67Z"/><path class="cls-1" d="M31.34,243.27c16.23-3.56,28.3-4.4,54.21-5a432.46,432.46,0,0,1,33.36-37.08,395.75,395.75,0,0,1,41.76-36.49,5.44,5.44,0,0,0,4.12-.49s4.44-2.79,2.08-6.9c-.19-.22-.39-.43-.59-.63-2.2-1.82-8.44-.62-7.89,5.47a499.44,499.44,0,0,0-41.21,36.68,422.73,422.73,0,0,0-32.61,36.26c-27.76.64-36.62,1.69-52.69,5-10-16.79-17.17-32.32-20.85-45.55C8.09,183.83,7.67,175.37,9.5,169.1l-.95,3.31c-1.7,6.18-1.25,14.48,1.63,24.91C13.88,210.64,21.2,226.31,31.34,243.27Z"/><path class="cls-1" d="M33.75,230.17c15.64-3.6,30.7-4.17,48.18-4.9A398.92,398.92,0,0,1,112,191.91q7.67-7.65,15.71-14.91a4.39,4.39,0,0,0,4.56-.37c2.89-1.93,3.59-6,1.36-7.89-2.67-2.28-8.45.49-7.57,6q-8,7.31-15.71,14.9a387.15,387.15,0,0,0-29.19,32.47c-25.77.8-34.53,2.5-46.65,4.84-9.3-16-16-30.83-19.54-43.58-3.23-11.73-3.5-20.85-1.17-27.39l-1.14,3.27c-2.19,6.47-1.89,15.43,1.27,26.9C17.45,199,24.3,214,33.75,230.17Z"/><path class="cls-1" d="M44.77,190.16c10.42-1.9,13.27-2.15,28.84-3.55q9.24-11.06,20.1-21.9A364.55,364.55,0,0,1,135.57,129a4.51,4.51,0,0,0,4.48-.16h0s4.5-2.6,2.76-6.5c-.15-.16-.31-.41-.48-.57-2.27-2.09-8.29.25-8.08,5.1a357.92,357.92,0,0,0-41.89,35.67Q82,172.84,73.11,183.43c-11.75.92-12.32,1-27.1,3.35-7-13.1-12.1-25.28-15.08-36.08-4-14.6-3.71-25.44.33-32.47l-1.74,3.06c-3.88,7-4.17,17.72-.16,32.09C32.34,164.37,37.62,176.79,44.77,190.16Z"/><path class="cls-1" d="M382.72,194.41c-1.39-.8-2.19-.09-3.4,1-.85-.63-1.71-1.28-2.56-1.93A498.24,498.24,0,0,1,337.52,160c-35,42.65-81.26,93.64-128.78,141q-7.55,7.51-14.79,14.6c.82,32.32,3.43,64.47,3.59,96.76a7.44,7.44,0,0,0-2.81,2c.62,4.17,6.17,5.38,9.27,2-.3-2.16-.36-2.54-3.06-3.76-.3-31.93-2.73-63.77-3.66-95.68q6.79-6.61,13.86-13.64c46.71-46.54,91.94-97,126.24-139.57,12.37,11.56,25.24,22.53,38.21,32.42a8.88,8.88,0,0,1,2.53,2.65c.28,3.13.62,3.28,2.46,4.17a5.84,5.84,0,0,0,2.66-1.87h0C384.92,197.82,383.7,195.93,382.72,194.41Z"/><path class="cls-1" d="M351.45,225.35c2.44.43,6.9-4,3.29-8.54-1.68-.86-2.27-.92-4.27.45q-6.25-5-12.41-10.29A846.82,846.82,0,0,1,238,327.24l-3.24,3.21c.64,24.49.64,24.49.51,38.29a4.35,4.35,0,0,0-2.45,2.9c-.67,3.4,3.76,6.31,8,4.17h0c2.82-1.6,3.34-5.72-1.38-7.39-.62-16.87-.62-16.87-1.23-36.82l2.27-2.24A809.52,809.52,0,0,0,338.3,211.1q5.26,4.46,10.59,8.74C348.22,224.27,350.45,225.17,351.45,225.35Z"/><path class="cls-1" d="M396.7,76.1l-.16-.19c.68.84,1.34,1.71,2.09,2.53C398.42,78.21,397.75,77.38,396.7,76.1Z"/><path class="cls-1" d="M447.49,183.68,416.4,113.63a9.29,9.29,0,0,0-1.51-2.74h-.07c0,.31,1.88,7.51,3.3,8,16.43,34.51,23.8,53.08,29.72,68a20.58,20.58,0,0,0,5.7-.31c.7,2.32.94,2.54,1.44,3,.18-.39.49-1-.14-4a19.17,19.17,0,0,0-1.75-5.21h-.54a11,11,0,0,0,.25,3A19.7,19.7,0,0,1,447.49,183.68Z"/><path class="cls-1" d="M386.85,54.58a16.5,16.5,0,0,0-2.09-1.83l-1.21-1h-.07l-1.38-1.1c1.51,1.22,2.92,2.53,4.41,3.77C386.79,54.58,386.79,54.58,386.85,54.58Z"/><path class="cls-1" d="M316.92,14.48a53.62,53.62,0,0,0,5.86,2.23c11.08,4.55,12.3,5.21,27.28,13.32a103.35,103.35,0,0,1,13.55,7.39,113.12,113.12,0,0,0-15.47-8.64C331.55,19.47,316.27,13.93,315,13.69l2,.79Z"/><path class="cls-1" d="M369.83,41.57c-2.13-1.5-4.17-2.88-6.25-4.17.73.47,1.46,1,2.2,1.46Z"/><path class="cls-1" d="M215.59,32.76c8.1,29.43,37,72,74.55,112.89A1610.73,1610.73,0,0,0,165.68,257.37c-9.26,9.23-18,18.18-26.81,26.5-1.48-.16-4.93-.52-5.6,3.49-.64,3.82,3.2,7.38,6.92,5.14,1.81-1.21,2.3-3.23,1.47-6q12.3-12.87,26.2-26.74c41.7-41.54,86.53-81.81,126.15-114.16-37.81-40.91-67.1-83.78-75.22-113.26-6-21.67.55-32.32,16.1-32.32h-3.48C216,.26,209.62,11.05,215.59,32.76Z"/><path class="cls-1" d="M190.11,37.65c7.83,28.41,33.44,68.06,67.59,107.72a942.1,942.1,0,0,0-108.89,93c-9.26,9.22-17.92,18.26-26.54,26.76-4.34-.79-5.21,2.55-5.44,3.6-.67,3.89,3,7.45,6.58,5.15,1.74-1.24,2.25-3.3,1.52-6.1q12.06-13.14,26-27a993.13,993.13,0,0,1,111-95.23c-34.64-39.91-60.72-80-68.59-108.61-6-21.8-.47-33.37,13.69-35.14l-3.4.44C189.55,4.1,184.1,15.82,190.11,37.65Z"/><path class="cls-1" d="M165.1,44.94c7.3,26.49,29,62.09,58.62,98.89a670.59,670.59,0,0,0-90.79,75.49c-9.27,9.23-17.84,18.36-26.3,27a4.25,4.25,0,0,0-5.17,3.05,4.78,4.78,0,0,0-.11.66c-.71,3.92,2.68,7.46,6.17,5.09,1.7-1.28,2.23-3.35,1.58-6.18q11.84-13.4,25.73-27.27a694.34,694.34,0,0,1,93.22-77.64c-30.24-37.22-52.46-73.4-59.83-100.17-6-21.8-1.27-34.12,11.68-37.22l-3.4.85C163.73,10.79,159.1,23.18,165.1,44.94Z"/><path class="cls-1" d="M36.78,216.9c14.22-2.84,20.64-3.41,41.94-4.58a365.14,365.14,0,0,1,26.78-29.65A421.65,421.65,0,0,1,147,146.46a4.66,4.66,0,0,0,4.6-.19s4.47-2.69,2.41-6.7a7.57,7.57,0,0,0-.53-.6c-2-1.78-8.16-.62-8,5.28A414.9,414.9,0,0,0,104,180.39,365.39,365.39,0,0,0,78,209.08c-21.67,1.11-28.31,2.31-40.35,4.5-8.55-15.12-14.76-29.1-18.14-41.28-3.51-12.75-3.61-22.49-.72-29.25l-.72,1.71-.62,1.48c-2.74,6.71-2.6,16.29.85,28.8C21.74,187.37,28.09,201.57,36.78,216.9Z"/><path class="cls-1" d="M76,199.42a341,341,0,0,1,23.47-25.79q7.67-7.66,15.76-14.84a4.16,4.16,0,0,0,4.39-.41c2.89-1.9,3.77-5.88,1.74-7.71-2.43-2.2-8.14.55-7.59,5.9q-8.09,7.16-15.76,14.81-12.33,12.28-22.64,24.84c-18.25,1.32-20.6,1.74-33.89,4-25-46.44-19.47-62.15-16.84-69.69l-1.52,3.12c-8.6,20.24,9,53.8,17.37,69.92C53.07,201.38,56,200.86,76,199.42Z"/><path class="cls-1" d="M49.77,176.75c6.57-1,15.39-2.08,22-2.79q7.77-9.09,16.68-17.94,7.68-7.65,15.82-14.75a4.06,4.06,0,0,0,4.17-.47c2.86-1.9,4-5.76,2.14-7.5-2.19-2.08-7.78.67-7.6,5.83q-8.15,7.1-15.81,14.74-8.4,8.34-15.8,16.95c-6.1.63-14.2,1.71-20.26,2.6A178,178,0,0,1,37.55,140.2c-4.27-15.53-3.73-26.8.93-33.89l-1.9,2.94c-4.5,7.08-5,18.23-.77,33.56C38.69,153,43.42,164.46,49.77,176.75Z"/><path class="cls-1" d="M55.48,163.44c4.48-.71,10.43-1.4,15-2q6.25-7.06,13.14-14a322.64,322.64,0,0,1,42.14-35.25,4.37,4.37,0,0,0,4.3-.21h0s4.52-2.51,3.13-6.25a5.7,5.7,0,0,0-.42-.55c-2-2-8,.31-8.13,5a315.43,315.43,0,0,0-42.16,35.21q-6.43,6.42-12.26,13c-4,.43-9.23,1.22-13.19,1.77a173,173,0,0,1-12-30.24c-4.52-16.37-3.71-28,1.57-35.13l-2.08,2.83c-5.12,7.1-5.86,18.69-1.41,34.86A175.29,175.29,0,0,0,55.48,163.44Z"/><path class="cls-1" d="M97.57,69.59a8.1,8.1,0,0,0-2.26,3.19c-.54,2,1.51,2.09,3.7.89a10,10,0,0,0,4.31-4.49c.37-1,.23-2.76-3-1.45-2.7-15.4.38-25.58,8.26-30.62l-2.94,2C97.9,44.14,94.89,54.29,97.57,69.59Z"/><path class="cls-1" d="M131.56,78.74c-4.73,4.17-3.21,7.5.08,7.68a8.75,8.75,0,0,0,3.35-.67h0c2.66-1.12,7-4.73,4.91-8-1.31-1.2-2.85-1.35-5.46-.56a138.46,138.46,0,0,1-5.82-16.57c-5.83-21.13-2.36-34.07,8.43-39L133.93,23c-10.63,5.08-14,18-8.2,39.08A141.35,141.35,0,0,0,131.56,78.74Zm5.08.43c1.66.68.75,3.13-1.62,4.3-.94.46-2.7.89-3.39-.36-.76-2.2,3.05-4.74,5-3.94Z"/><path class="cls-1" d="M91.36,94a8.33,8.33,0,0,0-1.71,3c-.6,2.54,1.47,3.41,4.17,1.77h0a8.89,8.89,0,0,0,3.62-4.27c.64-1.9,0-4-3.45-2.58-.95-2.73-1.78-5.39-2.51-8-5.43-19.75-3.12-32.66,5.44-38.92l-2.84,2.08C85.67,53.48,83.46,66.38,88.87,86,89.57,88.61,90.4,91.28,91.36,94Z"/><path class="cls-1" d="M78,89.85a11.25,11.25,0,0,0,4-5c.34-1.14.17-2.88-2.86-1.23-2.52-14.43-.07-24.34,6.58-29.83L83,56.07c-6.5,5.52-8.88,15.4-6.37,29.68a9.19,9.19,0,0,0-2.09,3.48C74.08,91.36,76,91.26,78,89.85Z"/><path class="cls-1" d="M368.21,221.79c.49,3.45,3.64,4.17,5.71,1.35a5.59,5.59,0,0,0-.42-7c-1.72-.56-2.08-.7-3.87.8l-2.87-2.17c-9.9-7.55-19.75-15.64-29.39-24.18-29.69,41.51-68.06,87-109.24,128-2.4,2.39-4.8,4.75-7.17,7.06.51,18.77,1.34,37.44,1.79,56.17-1,.44-2.55,1.11-2.9,2.8-.69,3.32,4.3,5.94,7.84,4.17,1.84-.94,4.17-4.77-1.33-6.94-1.44-38.43-1.44-38.43-2-55,2.08-2,4.12-4,6.19-6.11C271,280.61,308.43,235.89,337.49,194.7c9.18,8,18.51,15.63,27.89,22.84a9.83,9.83,0,0,1,2.81,2.9C368.2,220.83,368.16,221.39,368.21,221.79Z"/><path class="cls-1" d="M207,393.63c-.65,2.84,3.67,5.7,7.66,4.1,1.8-.91,4.17-4.32-1.29-6.55-.88-23.06-2-46.1-2.63-69.16q5-4.83,10.06-9.89c43.56-43.4,84.76-91.08,116.38-133.33,7.77,7,15.7,13.82,23.71,20.26-.55,4.1,1.24,5,2.36,5.15,2.18.33,6.14-4.09,2.85-8.34-1.67-.83-2.17-.5-3.81.61-8.49-6.83-16.89-14-25.11-21.54-32.32,42.41-74.46,90.79-118.85,135q-5.57,5.55-11,10.84c.31,12.12.31,12.12,2.71,70.25C208.93,391.46,207.36,392.05,207,393.63Z"/><path class="cls-1" d="M158.81,450.8c-.14-.41-.14-.41-.62-.75-2.44-1.35-6-1.87-7-1.28-.06,1.17,3.5,2,4.6,2.23,21.69,13.26,32.38,15.73,39.46,17.37l3.53.58c-10.51-1.74-24.42-7.69-40.81-17.79C158.52,451.09,158.52,451.09,158.81,450.8Z"/><path class="cls-1" d="M178.58,464.23a1.55,1.55,0,0,0-.29-.14,62.79,62.79,0,0,0-8.11-1.9,25.18,25.18,0,0,0,4.26,1.28c2.19.78,4.43,1.45,6.69,2l2.09.49,1.59.35a66.63,66.63,0,0,1-7.71-2.24C178.35,464.3,178.41,464.28,178.58,464.23Z"/><path class="cls-1" d="M146.65,451.5c0-.22,0-.22-.43-.47a20.47,20.47,0,0,0-6.65-2.09l-.13.15a15.52,15.52,0,0,0,4.17,1.83,117.64,117.64,0,0,0,22.25,10.39l3.78,1.13a118.2,118.2,0,0,1-23.91-10.92A1.91,1.91,0,0,0,146.65,451.5Z"/><path class="cls-1" d="M151.45,456.31h0l6.26,2.28h.1l-.22-.09C155.53,457.79,153.48,457.07,151.45,456.31Z"/><path class="cls-1" d="M126.51,440.46a14.61,14.61,0,0,0-3.5-1.61q-4.32-3.06-8.84-6.5c-7-5.36-14-11.14-20.85-17.2-15.89-6.78-21.15-10-26.35-14.33l.73.74.16.16c5.34,5,13.34,8.77,25,14C99.32,421.5,106,427,112.62,432.1c2.95,2.24,5.82,4.36,8.64,6.34h-.43v.37a14,14,0,0,0,4.22,2.08c1.29.41,1.35.39,2,.16A3.19,3.19,0,0,0,126.51,440.46Z"/><path class="cls-1" d="M26,307.18c5.6-2.27,18.71-7.56,73.28-3.25,2,3.76,5,2.61,5.68,2.09,0,0,3.29-2.74.18-7-2.79-2.65-5.38-1.38-6.26,1.38-46.44-2.08-59.52-.82-73.09,3.9-11.58-17.67-19.87-34-23.57-47.47a55,55,0,0,1-2.09-12l.17,3.53a54.5,54.5,0,0,0,2,11.33C6,273.15,14.32,289.51,26,307.18Z"/><path class="cls-1" d="M25.19,283.92c12-3.87,25.52-6,56.11-4.89,1.78,3.75,4.48,2.65,5.29,2,0,0,3.13-3,.28-7.22-2.32-2.35-4.9-1.61-5.9,1.7-37.19-.09-45.38,2.35-55.73,5.48C14.4,263.66,6.61,247.7,2.93,234.33,1,227.47.32,221.65.71,216.86L.5,219.59v.71a52.27,52.27,0,0,0,2.18,16.86C6.37,250.51,14.23,266.55,25.19,283.92Z"/><path class="cls-1" d="M396.28,96.28c-1.57.76-2.08,7.5-.59,7.67.51.07,1-.85,1.28-2.32a11.37,11.37,0,0,0-.24-5,83.13,83.13,0,0,0-.19-20.73A81.21,81.21,0,0,1,396.28,96.28Zm.24,4.37c-.08.59-.35,1.53-.77,1.28-.7-.72-.11-3.81.45-3.79C396.54,98.14,396.72,99.43,396.52,100.65Z"/><path class="cls-1" d="M263.58,30.2a85.89,85.89,0,0,0,3.13,9.2c4.76,1.44,11.12,3.33,15.88,4.78-1.7,1.63,2.09,3,5.51,3.18h0c2.08.15,7.62-.14,6-2.28-2.56-1.9-7-1.86-7.54-1.85-2.53,0-2.53,0-16.88-4.31a81.7,81.7,0,0,1-2.91-8.58c-4.64-16.84.24-25.28,12.06-25.6L293,7.68c.07,0,7.63,2.39,9.76,2.76-.91-1.11-10.55-3.71-26.65-6.32C263.9,4.3,258.81,12.9,263.58,30.2Zm27.21,14.68c.88.45.83,1-.14,1.26a6.64,6.64,0,0,1-2.08.21h0c-1,0-2.78-.32-3.23-1C284.9,44,289,44,290.79,44.88ZM294.31,7.8a36.2,36.2,0,0,1,5.76,1.69,32.65,32.65,0,0,1-3.91-1.05,14.77,14.77,0,0,1-1.94-.66A.1.1,0,0,1,294.31,7.8Z"/><path class="cls-1" d="M381.77,61.27c.37.39.61.63,2.85,2.72,1.43,1.35,2.84,2.7,4.28,4.05q3.89,3.81,7.64,7.87-3.72-4.06-7.6-7.89A78.85,78.85,0,0,0,381.77,61.27Z"/><path class="cls-1" d="M393.16,72.56c.38.38.78.74,1.16,1.13l-.35-.35C393.71,73.07,393.43,72.82,393.16,72.56Z"/><path class="cls-1" d="M394.32,73.69l2.22,2.22L395,74.34Z"/><path class="cls-1" d="M381.2,61.59c.92.92,7.3,6.56,7.4,6.62,1.53,1.42,3,2.88,4.56,4.35-1.51-1.47-3-3-4.53-4.38A89.44,89.44,0,0,0,381.2,61.59Z"/><path class="cls-1" d="M374.77,59.1c-1.23-1-7.19-5.21-8-5.09A27.4,27.4,0,0,0,370,56.3c.14.09,3.41,2.22,4.75,3a238.4,238.4,0,0,1,19.91,15.06l1.86,1.6L393.6,73.4A233.83,233.83,0,0,0,374.77,59.1Z"/><path class="cls-1" d="M388.78,68.09a83.87,83.87,0,0,0-7.3-6.68c.39.39.64.63,2.92,2.72l4.36,4q4,3.78,7.81,7.8Q392.78,71.89,388.78,68.09Z"/><path class="cls-1" d="M366.78,54.87a27.08,27.08,0,0,0,3.29,2.22c.36.22,3.44,2.09,4.73,2.79,3.12,2.14,6.74,4.74,10.32,7.39q-5-3.57-10.26-6.86c-1.27-1-7.3-4.85-7.95-4.6A25.68,25.68,0,0,0,370.22,58c.14.08,3.36,2,4.67,2.63q6.84,4.23,13.36,9c2.93,2.2,5.78,4.38,8.34,6.26a230.39,230.39,0,0,0-21.81-16.14C373.52,58.74,367.54,54.71,366.78,54.87Z"/><path class="cls-1" d="M448.1,220.48c-1.66-5.47-3.85-12.77-5.58-18.23.38-4.17-.93-10.09-2.61-9.94-2.16,2-.5,12.27,1.22,12.69.38.08.56-.16.8-.47,1.8,5.72,4.17,13.35,5.87,19.12,8.34,1.42,14.59.23,18.29-3.61l1.85,7.41c0,1.05.12,6.45.86,8.49l.3.07c.52-1.42.4-5,.36-6.14a26,26,0,0,0-.91-6.38l-.29-.07a4.62,4.62,0,0,0-.25,1.43c-.63-2.45-1.49-5.71-2.08-8.16C462.32,220.56,456.24,221.8,448.1,220.48ZM441,201.81c-1.29-.6-1.36-6-.61-6.34.54-.26,1.21,1.66,1.32,3.73h0c.09,1-.06,2.69-.71,2.62Zm27.68,24.76a8.56,8.56,0,0,1,.46,2.93h0a12.69,12.69,0,0,1-.15,3.37c-.27.3-.47-1.58-.53-2.61-.13-1.92-.05-3.95.22-3.68Z"/><path class="cls-1" d="M447.69,252.85c.44.07,1.54-.23,2.31-4.62,5.7.61,10.42,0,13.94-1.85.18,3,.46,3.84.86,4.17,1.13-.18,1.3-5.66,1.31-5.89h0c0-.59.14-5.75-.93-7H465l-.18.21c-.39.83-.65,2-.82,5.21-3.52,1.82-8.15,2.42-13.77,1.83-.29-5.74-1.83-5.34-2.39-4.72C445.86,242.44,445.26,252.44,447.69,252.85Zm17.23-11.79c.1-.19.26-.3.42.21a10.07,10.07,0,0,1,.26,2.84h0c0,.95-.14,2.86-.55,3.23-.79.24-.63-5.39-.13-6.28Zm-16.68,2.08c.68-.33,1.16,1.53,1,3.69-.1,1-.46,2.76-1.2,2.77-1.43-.43-.7-6,.21-6.44Z"/><path class="cls-1" d="M344.81,265.69a3.53,3.53,0,0,0,2.63,2.09c2.87.46,7.52-4.17,3.53-8.84-4.52-1.91-6.12,2.34-6.49,3.69-8.49,2.16-19.9,4.66-28.47,6.42a653.93,653.93,0,0,1-47.44,56.73c.72,16.47.72,16.47,1.33,36.49q6.06,4.47,11.91,8.56a360.47,360.47,0,0,1-28.92,25c-4.75-.85-6.41,1.43-6.81,2.15-1.82,3.35,3.21,6.18,7.3,4.1,3.08-1.56,2.15-3.88,1.85-4.64a359.76,359.76,0,0,0,31.36-27.28q-6.52-4.5-13.29-9.48c-.31-10.18-.82-23.77-1.28-33.95A632.38,632.38,0,0,0,317.54,272C325.78,270.3,336.68,267.73,344.81,265.69Z"/><path class="cls-1" d="M314.39,332.43c-.57,4.12,4.12,6,7.48,3h0a5,5,0,0,0,1.3-6c31.73-40.35,55.7-85.61,69.33-128.7,0-.21-3.5-20.85-2.73-22.7a5.49,5.49,0,0,0-.88-5.54,2.6,2.6,0,0,0-1.9,0c-1.72,1-3.56,7.22.32,8.19.95,6,2.27,14.1,3.26,20.13-14.06,42.48-38.17,87.1-69.74,127C315.14,327.42,314.42,332.22,314.39,332.43Z"/><path class="cls-1" d="M53.37,92.39c2-2.08,4.65-5.68,4.17-6.35-.36,0-.77.25-1.85,1.26A21.19,21.19,0,0,1,60.41,78L58,80.66a21.22,21.22,0,0,0-4.53,9.11C51.3,92.61,51,93.53,51,94l.14.09C51.41,94.05,51.92,93.91,53.37,92.39Z"/><path class="cls-1" d="M178.06,406.49a3.37,3.37,0,0,0,1.67-1.26c1.26-2.16-1.78-5.62-6.34-4.88q-7.69-6.25-15.28-12.87c-2.6-36.12-2.6-36.12-3.54-51q7.43-7.1,15.39-14.82a5.74,5.74,0,0,0,2.08.52c3.19.07,6.69-3.59,3.08-7.85a7.32,7.32,0,0,0-1.62-1c-3.42-1.43-7.88,1.44-5.87,6.16q-8.34,8.16-16.17,15.64c1,15.74,1,15.74,3.8,53q8,6.94,16.05,13.55c-.06.14-.17.3-.23.44C170,404.81,174.59,407.71,178.06,406.49Z"/><path class="cls-1" d="M257.45,414a5.18,5.18,0,0,0-2.31-1.88c-6.44-2-11.69,2.28-10.08,5.41.11.19.29.42.42.61A226.66,226.66,0,0,1,215.24,434q9,5.91,17.38,10.67c-3.25,2.29,0,3.66,1.56,4a14.3,14.3,0,0,0,5.79-.13c3.6-.89,4.84-3,2.55-4.27-.76-.45-3-1.37-7.38-.54q-7.48-4.26-15.5-9.38a227.12,227.12,0,0,0,28-14.75C254.11,421.42,259.14,417.12,257.45,414Zm-6.64-.2c2.57-.42,4.51,1.15,3.41,2.74a3.07,3.07,0,0,1-1.05.88,4.75,4.75,0,0,1-4.37,0c-1.79-1.3-.36-3.25,2-3.62ZM236.45,445c2.31-.49,4.65.35,4,1.43a2.7,2.7,0,0,1-1.48.93,6.27,6.27,0,0,1-4.08-.17c-1.4-.86,0-1.86,1.53-2.19Z"/><path class="cls-1" d="M360.66,426.2a228.11,228.11,0,0,0,19-16.95q2-2,3.91-4a12.64,12.64,0,0,0,4-2.75s3.79-3.82,1.94-4.45c-2.66.19-7.73,5.21-7.24,7.08q-1.92,2-3.9,4-8,8-16.49,14.92A81.58,81.58,0,0,1,350.55,422c1.74-4.86,3.28-11.58,5-16.43.19-.54.78-.53,1.15-.84,1.53-1.29,2.51-2.87,2.44-3.94-.18-2.51-5-1.13-7.66,2.18-1.69,2.09-1.63,4.18,1.16,3.83-1.34,5.21-3.52,12-5.21,17.07A77,77,0,0,0,360.66,426.2Z"/><path class="cls-1" d="M422.3,371.65c-2.09.92-6.5,7.06-5.77,8.12.32,0,.43,0,1.17-.56-5.35,12.51-9,18-17.83,26.59l2.7-2.65h0l3.63-3.7c3.13-3.75,7.42-8.81,9.43-13.26,1.23-2.72,2.53-6.54,4.09-9.08.56-.9,1.31-1.66,1.85-2.57,1.26-2.15,1.18-2.59,1-2.88Z"/><path class="cls-1" d="M407,398.64l-.8.82h0Z"/><path class="cls-1" d="M97.46,408h0c1.42-.25,2.35-2-.83-4.63-2.92-1.88-4.81-1.4-5.21,0-25.84-8.13-32-11.16-33.36-12.23l.82.93c5.86,4,26.61,10.69,32.82,12.65A6.33,6.33,0,0,0,97.46,408Zm-3.35-4.35c1.55,0,3.4,1.88,2.6,2.71a1,1,0,0,1-.34.19h0a2.79,2.79,0,0,1-2.44-.84C92.81,404.63,93.11,403.72,94.11,403.69Z"/><path class="cls-1" d="M120.19,328.62c2.08,3.6,5.21,2.75,6.07,2.18,0,0,3.5-2.54.19-6.65-3-2.65-5.83-1.47-6.68,1.15-58.84-4.34-76.61-5.64-91.51.65-11.88-17.43-20.4-33.62-24-46.7-.53-1.91-1-3.85-1.3-5.8l.61,3.62Q4,279.41,4.73,282c3.59,13,12.11,29.13,24,46.49C34,325.7,44,320.56,120.19,328.62Z"/><path class="cls-1" d="M206.46,142.75a585.47,585.47,0,0,0-81,67.1c-1.35,1.34-2.68,2.67-4,4-5.06-1.77-6.44,3.34-6.5,3.56-1,4,2.33,7.58,6.19,5.12,1.91-1.34,2.63-3.47,2.14-6.33l4-4A606.37,606.37,0,0,1,210.77,143c-27.68-35.34-47.84-69.18-54.87-94.73-6-21.64-1.64-34.24,10.64-38l-3.28,1c-12.11,3.88-16.34,16.52-10.42,38.13C159.8,74.7,179.43,107.94,206.46,142.75Z"/><path class="cls-1" d="M177.55,41c7.59,27.57,31.27,65.32,63.3,103.74a783.43,783.43,0,0,0-100.16,84.1,19,19,0,0,1-4.61,3.71c-4.55-.75-5.74,2.72-6,3.81-1,3.94,2.72,7.6,6.61,5.21,1.93-1.34,2.61-3.46,2-6.33,1.31-1.33,2.65-2.67,4-4a820,820,0,0,1,102.41-86.3c-32.56-38.78-56.76-77-64.42-104.8-6-21.9-.86-33.86,12.73-36.28L190,4.47C176.58,7.05,171.53,19.13,177.55,41Z"/><g class="cls-2"><path class="cls-3" d="M179.55,234.46a19,19,0,0,1,5.31-13.14,18.3,18.3,0,0,1,25.78,0,18,18,0,0,1,5.56,13.14V376a17,17,0,0,1-5.56,13.14,18.3,18.3,0,0,1-25.78,0A17.85,17.85,0,0,1,179.55,376v-55.6a1.54,1.54,0,0,0-.25-.88,8.8,8.8,0,0,1-.51-.89,2.39,2.39,0,0,0-1.76-.76h-36.4a2.42,2.42,0,0,0-1.77.76,2.45,2.45,0,0,0-.75,1.77V376a17.85,17.85,0,0,1-5.31,13.14,17.56,17.56,0,0,1-12.89,5.31A18.14,18.14,0,0,1,101.46,376V234.46a19,19,0,0,1,5.31-13.14A17.85,17.85,0,0,1,119.91,216a17.56,17.56,0,0,1,12.89,5.31,19,19,0,0,1,5.31,13.14v48.27a2.58,2.58,0,0,0,2.52,2.53H177a2.39,2.39,0,0,0,1.76-.76,8.58,8.58,0,0,1,.51-.88,1.55,1.55,0,0,0,.25-.89V234.46Z"/><path class="cls-3" d="M340.28,309.27a46.22,46.22,0,0,1,11.12,24.51,48.64,48.64,0,0,1,.51,13.9,73.85,73.85,0,0,1-2.78,13.4,47.79,47.79,0,0,1-14.41,22.24A54,54,0,0,1,311.22,396a69.56,69.56,0,0,1-28.81,1,59,59,0,0,1-26.54-11.12,43.09,43.09,0,0,1-9.35-9.1A60,60,0,0,1,240,366.13a15.85,15.85,0,0,1-1.52-8.72,18.53,18.53,0,0,1,2.78-8,18,18,0,0,1,6.2-5.81,17.47,17.47,0,0,1,18.07.51,14.73,14.73,0,0,1,6.31,7.32,14.26,14.26,0,0,0,1.14,1.9c.42.59.89,1.22,1.39,1.9a6.24,6.24,0,0,0,1.39,2.14l1.9,1.9a24.07,24.07,0,0,0,9.22,5.05,27.63,27.63,0,0,0,10.49,1,22.81,22.81,0,0,0,9.86-3.29,18.73,18.73,0,0,0,7.07-7.83c2-4.22,2.82-8,2.4-11.38a20.41,20.41,0,0,0-3.66-9.35,25.41,25.41,0,0,0-8-7.2,53.29,53.29,0,0,0-10.24-4.68q-8.6-3-17.44-6.31a87.37,87.37,0,0,1-16.42-8.09,60.83,60.83,0,0,1-13.52-11.75,40.81,40.81,0,0,1-8.22-16.81,55.37,55.37,0,0,1-.38-24.89,50.4,50.4,0,0,1,10-20.85A55.44,55.44,0,0,1,267,218.67a58.1,58.1,0,0,1,24-5.94,61,61,0,0,1,29.82,5.81A56.52,56.52,0,0,1,333,226.12a43.06,43.06,0,0,1,9.35,10.62,17.65,17.65,0,0,1,2.78,9.35,19.43,19.43,0,0,1-2,8.84,19.08,19.08,0,0,1-6.32,6.7,16.62,16.62,0,0,1-9.35,2.65h-.25a17.25,17.25,0,0,1-8.84-2.52,21.38,21.38,0,0,1-6.58-6.32,24.13,24.13,0,0,0-2.78-4c-.67-.67-1.35-1.31-2-1.9s-1.43-1.22-2.27-1.89a18,18,0,0,0-11.38-3.16,24.15,24.15,0,0,0-11.11,3.41,20.39,20.39,0,0,0-7.46,8.34,16.24,16.24,0,0,0-.88,11.88,16.65,16.65,0,0,0,4.54,8.21,33,33,0,0,0,7.59,5.43,53.85,53.85,0,0,0,9.09,3.79q4.8,1.51,9.1,3,5.06,1.77,10,3.66a74.44,74.44,0,0,1,9.48,4.42,100,100,0,0,1,8.85,5.56A45.18,45.18,0,0,1,340.28,309.27Z"/></g><g class="cls-2"><path class="cls-4" d="M171.47,229.06a19,19,0,0,1,5.31-13.14,18.3,18.3,0,0,1,25.78,0,18,18,0,0,1,5.56,13.14V370.59a17,17,0,0,1-5.56,13.14,18.3,18.3,0,0,1-25.78,0,17.85,17.85,0,0,1-5.31-13.14V315a1.57,1.57,0,0,0-.25-.89,7.62,7.62,0,0,1-.51-.88,2.39,2.39,0,0,0-1.76-.76h-36.4a2.42,2.42,0,0,0-1.77.76A2.45,2.45,0,0,0,130,315v55.6a17.85,17.85,0,0,1-5.31,13.14A17.56,17.56,0,0,1,111.83,389a18.14,18.14,0,0,1-18.45-18.45V229.06a19,19,0,0,1,5.31-13.14,17.85,17.85,0,0,1,13.14-5.31,17.56,17.56,0,0,1,12.89,5.31A19,19,0,0,1,130,229.06v48.27a2.58,2.58,0,0,0,2.52,2.53H169a2.39,2.39,0,0,0,1.76-.76,8.58,8.58,0,0,1,.51-.88,1.55,1.55,0,0,0,.25-.89V229.06Z"/><path class="cls-4" d="M332.2,303.87a46.22,46.22,0,0,1,11.12,24.51,48.63,48.63,0,0,1,.51,13.9,73.85,73.85,0,0,1-2.78,13.4,47.79,47.79,0,0,1-14.41,22.24,54,54,0,0,1-23.5,12.63,69.39,69.39,0,0,1-28.81,1,58.78,58.78,0,0,1-26.54-11.12,43,43,0,0,1-9.35-9.09,60,60,0,0,1-6.57-10.62,15.85,15.85,0,0,1-1.52-8.72,18.53,18.53,0,0,1,2.78-8,18,18,0,0,1,6.2-5.81,17.47,17.47,0,0,1,18.07.51,14.73,14.73,0,0,1,6.31,7.32,14.26,14.26,0,0,0,1.14,1.9c.42.59.89,1.22,1.39,1.9a6.24,6.24,0,0,0,1.39,2.14l1.9,1.9a24.07,24.07,0,0,0,9.22,5,27.63,27.63,0,0,0,10.49,1,22.66,22.66,0,0,0,9.86-3.28,18.7,18.7,0,0,0,7.07-7.84q3-6.32,2.4-11.37a20.41,20.41,0,0,0-3.66-9.35,25.41,25.41,0,0,0-8-7.2,53.29,53.29,0,0,0-10.24-4.68q-8.59-3-17.44-6.31a87.37,87.37,0,0,1-16.42-8.09,60.83,60.83,0,0,1-13.52-11.75,40.81,40.81,0,0,1-8.22-16.81,55.37,55.37,0,0,1-.38-24.89,50.4,50.4,0,0,1,10-20.85,55.44,55.44,0,0,1,18.19-14.28,58.1,58.1,0,0,1,24-5.94,61,61,0,0,1,29.82,5.81,56.27,56.27,0,0,1,12.13,7.58,43.06,43.06,0,0,1,9.35,10.62,17.65,17.65,0,0,1,2.78,9.35,19.43,19.43,0,0,1-2,8.84,19.08,19.08,0,0,1-6.32,6.7,16.62,16.62,0,0,1-9.35,2.65h-.25a17.25,17.25,0,0,1-8.84-2.52,21.5,21.5,0,0,1-6.58-6.32,24.13,24.13,0,0,0-2.78-4c-.67-.68-1.35-1.31-2-1.9s-1.43-1.22-2.27-1.89a18,18,0,0,0-11.37-3.16,24.16,24.16,0,0,0-11.12,3.41,20.39,20.39,0,0,0-7.46,8.34,16.24,16.24,0,0,0-.88,11.88,16.7,16.7,0,0,0,4.54,8.21,33,33,0,0,0,7.59,5.43,53.85,53.85,0,0,0,9.09,3.79q4.8,1.51,9.1,3,5.06,1.77,10,3.66a75,75,0,0,1,9.47,4.42,100,100,0,0,1,8.85,5.56A45.18,45.18,0,0,1,332.2,303.87Z"/></g><path class="cls-5" d="M395.86,77.73l-6.54,3s.13,5.65,6.95,4.5C395.86,81.5,395.86,77.73,395.86,77.73Z"/><path class="cls-5" d="M394.41,108.81c-18.09,0-24.85-10.88-26.23-18.55l9.45-4.34c.28,1.48,2.55,14.51,19.38,12.57l.38,10.21A16.51,16.51,0,0,1,394.41,108.81Z"/><path class="cls-5" d="M392.64,132.81c-26.56,0-41-20.43-45.51-33.2l9.35-4.16c.46,1.3,10.7,31.64,41.4,27.07l.59,9.94A30.76,30.76,0,0,1,392.64,132.81Z"/><path class="cls-5" d="M390.45,157.82a66.82,66.82,0,0,1-44.54-18.11c-13.26-11.85-20.08-23.55-21.15-29.86l9.42-4.26c.67,4,7,16.16,18.55,26.51,9.7,8.71,25.08,18.57,46.22,15l.51,10.09A43.17,43.17,0,0,1,390.45,157.82Z"/><path class="cls-5" d="M400.43,183.38c-69.62-1.4-97.22-60.73-98.42-63.31l9.27-4.16c.28.56,25.54,56,88.77,57.2Z"/><path class="cls-5" d="M399.59,211.32c-79.45,0-121.06-76.62-122.84-79.91l9.37-4.16c.41.76,40,75.95,115.21,73.86l.51,10.21C400.71,211.35,400.69,211.32,399.59,211.32Z"/><path class="cls-5" d="M400.71,235.15c-87.9,8.2-147.21-89.57-149-92.87l9.37-4.16c.41.77,64.91,97.54,141.37,86.82l.51,10.21C401.84,235.18,401.81,235.05,400.71,235.15Z"/></svg>