<svg id="Layer_3" data-name="Layer 3" xmlns="http://www.w3.org/2000/svg" viewBox="0 0 48.54 48.54"><defs><style>.cls-1{fill:#a8aaad;}.cls-2{isolation:isolate;}.cls-3{fill:#9e9d9e;}.cls-4{fill:#595a5c;}.cls-5{fill:#eb0d8c;}</style></defs><title>Logo</title><path class="cls-1" d="M17.9,43.22a66.2,66.2,0,0,1-6.43-5.64c-6.06-.82-7-.95-7.56-.43A17.87,17.87,0,0,1,2,34l0,0,.17.4A18.72,18.72,0,0,0,4,37.34c.41-.52,1.61-.34,7.4.47a65.79,65.79,0,0,0,6.29,5.51c4.67,3.56,8.41,5.23,10.41,4.92h0l.35-.06C26.44,48.52,22.64,46.84,17.9,43.22Z"/><path class="cls-1" d="M17.05,43.59a62,62,0,0,1-5.86-5.11c-6.24-1-6.61-1-6.92-.58a18.53,18.53,0,0,1-1.46-2.26L3,36a18.38,18.38,0,0,0,1.34,2c.16-.45.78-.35,6.75.62a63.09,63.09,0,0,0,5.73,5c4.37,3.33,7.89,4.94,9.85,4.75l.26,0h.1C25.08,48.6,21.5,47,17.05,43.59Z"/><path class="cls-1" d="M16.23,43.89a59.31,59.31,0,0,1-5.31-4.58c-5.82-1.05-5.82-1.05-6.24-.87a.59.59,0,0,1,0,.13c-.3-.4-.57-.79-.82-1.17l.13.21.21.3c.18.27.38.54.59.82,0,0,0-.07,0-.09.25-.24.25-.24,6.1.86A59,59,0,0,0,16,44c4,3.08,7.33,4.62,9.23,4.56h0l.36,0C23.69,48.59,20.35,47,16.23,43.89Z"/><path class="cls-1" d="M10.66,40.06C5.25,38.94,5.25,38.94,5,39l0,.11.09.11v-.1c.24,0,.24,0,5.45,1.09a54.74,54.74,0,0,0,4.63,4C18.94,47,22,48.49,23.81,48.54h.36c-1.86,0-5-1.5-8.75-4.4A57.84,57.84,0,0,1,10.66,40.06Z"/><path class="cls-1" d="M10.42,40.73l-5-1.18.08.11c.12,0,.13,0,1.27.28,1.81.5,2.26.61,3.61.94,1.31,1.23,2.68,2.4,4.1,3.49,3.37,2.57,6.15,4,7.9,4.09h0l.38,0C21,48.37,18.11,47,14.65,44.33Q12.45,42.64,10.42,40.73Z"/><path class="cls-1" d="M41.27,8.87a1.17,1.17,0,0,0-.1-.26c-.06-.15-.14-.31-.18-.4l-.2-.4c.06.13.13.26.19.4A3.57,3.57,0,0,0,41.27,8.87Z"/><path class="cls-1" d="M41.33,8.9c0-.09-.07-.18-.11-.27s-.16-.31-.22-.41-.14-.28-.22-.41c.08.13.15.27.22.41A4,4,0,0,0,41.33,8.9Z"/><path class="cls-1" d="M41.39,8.94a1.43,1.43,0,0,0-.13-.28L41,8.24l-.24-.43.24.43A5.68,5.68,0,0,0,41.39,8.94Z"/><path class="cls-1" d="M41.45,9a1.59,1.59,0,0,0-.15-.29,3.81,3.81,0,0,0-.25-.43c-.08-.15-.17-.3-.26-.44.09.14.17.29.26.44A4.37,4.37,0,0,0,41.45,9Z"/><path class="cls-1" d="M41.5,9a2,2,0,0,0-.15-.29h0l-.27-.44-.29-.45.28.45A6.27,6.27,0,0,0,41.5,9Z"/><path class="cls-1" d="M44.26,34.69c.05-.2,0-.3,0-.32-.26,0-.52.63-.49.82s.16.16.39-.2a2.84,2.84,0,0,0,1.93-.45,14.72,14.72,0,0,1-.69,1.77l.19-.34a17.67,17.67,0,0,0,.66-1.76A2.73,2.73,0,0,1,44.26,34.69Z"/><path class="cls-1" d="M43.68,35.9c.06-.19,0-.29,0-.31-.27,0-.56.61-.54.8s.16.16.41-.19a2.9,2.9,0,0,0,1.85-.38,6.94,6.94,0,0,1-.83,1.81l.22-.32a6.68,6.68,0,0,0,.79-1.8A3,3,0,0,1,43.68,35.9Z"/><path class="cls-1" d="M43,37.08c.07-.19.06-.28,0-.3-.27,0-.6.59-.58.78s.15.15.43-.19a3.1,3.1,0,0,0,1.74-.3,6.33,6.33,0,0,1-1,1.84l.24-.31a6.51,6.51,0,0,0,.93-1.84A3.1,3.1,0,0,1,43,37.08Z"/><path class="cls-1" d="M45,11.62l-.13-.2Z"/><path class="cls-1" d="M40.14,5.9,40,5.81h0c.07.28.34,1,.75,2A9,9,0,0,1,40.14,5.9Z"/><path class="cls-1" d="M40.47,6.24h.08l-.1-.08h-.06a6.42,6.42,0,0,0,.4,1.63C40.43,6.6,40.45,6.41,40.47,6.24Z"/><path class="cls-1" d="M40.79,7.81a1.83,1.83,0,0,0,0-.21A2.06,2.06,0,0,1,40.79,7.81Z"/><path class="cls-1" d="M46,13.81h0a8.24,8.24,0,0,0-.89-1.93L45,11.63a7.92,7.92,0,0,1,.89,1.93,2,2,0,0,1,.08,1,53.06,53.06,0,0,0-5.17-6.75,50.17,50.17,0,0,1,5.31,7.06A2.11,2.11,0,0,0,46,13.81Z"/><path class="cls-1" d="M45.42,12.79a9.9,9.9,0,0,0-1.6-2.91l-.07-.1h0l-.45-.59a10.29,10.29,0,0,1,2,3.35,1.81,1.81,0,0,1,.07.8,52.47,52.47,0,0,0-4.54-5.53,49.73,49.73,0,0,1,4.7,5.83A1.87,1.87,0,0,0,45.42,12.79Z"/><path class="cls-1" d="M44.74,11.81c-.37-1.37-2-3.54-4-5.33l-.07,0c-.13.18-.11.39.08,1.35-.16-.89-.12-1-.06-1.24l.1,0c1.83,1.69,3.38,3.74,3.73,5a1.52,1.52,0,0,1,.07.6,53.41,53.41,0,0,0-3.84-4.36,52.35,52.35,0,0,1,4,4.65A1.59,1.59,0,0,0,44.74,11.81Z"/><path class="cls-1" d="M44,10.85h0a11.26,11.26,0,0,0-3-4.11h0c-.23.1-.21.4-.17,1.07,0-.79,0-.86.2-1a10.4,10.4,0,0,1,2.8,3.81,1.07,1.07,0,0,1,.06.43c-1.2-1.39-2-2.16-3.06-3.24,1.64,1.64,2.18,2.27,3.26,3.52A1.32,1.32,0,0,0,44,10.85Z"/><path class="cls-1" d="M43.22,10.25a1.06,1.06,0,0,0,0-.31A8,8,0,0,0,41,7c-.15.14-.18.2-.23.58a.92.92,0,0,1,.24-.51A7.38,7.38,0,0,1,43,9.71,1.26,1.26,0,0,1,43,10c-.82-.85-.92-1-2.21-2.19C41.91,8.89,42.11,9.09,43.22,10.25Z"/><path class="cls-1" d="M42.28,9.06A4.27,4.27,0,0,0,41,7.32a1.77,1.77,0,0,0-.23.48A3,3,0,0,1,41,7.4a4.2,4.2,0,0,1,1,1.44.78.78,0,0,1,0,.14c-.38-.36-.89-.82-1.29-1.18.47.42,1.08,1,1.53,1.43A.47.47,0,0,0,42.28,9.06Z"/><path class="cls-1" d="M41.32,8.23a1.62,1.62,0,0,0-.42-.59l-.11.17.06-.09a.87.87,0,0,1,.22.31v0l-.29-.24.54.47Z"/><path class="cls-1" d="M33.87,44.65a14,14,0,0,0,.92-3.23l.48-.46A30.34,30.34,0,0,0,44,17.37c-.49-1.45-.51-1.51-1.67-4.83-.44-.27-.87-.57-1.28-.88a20.85,20.85,0,0,1-3.49-3.41l.09-.12a.57.57,0,0,0-.62.1.55.55,0,0,0,.3.09A23.52,23.52,0,0,0,41,11.88a13.43,13.43,0,0,0,1.32.91c1.23,3.64,1.23,3.64,1.57,4.66a30.59,30.59,0,0,1-8.85,23.42l-.57.55a14.29,14.29,0,0,1-1,3.39c1.64.49,2.9.49,3.69,0l.31-.19C36.75,45.12,35.49,45.13,33.87,44.65Z"/><path class="cls-1" d="M32.52,45.26a12.75,12.75,0,0,0,1.07-3.83c.3-.27.59-.56.89-.85a31.45,31.45,0,0,0,9.18-22.87c-.43-1.39-.87-2.77-1.3-4.16-.44-.27-.91-.59-1.41-1a24.25,24.25,0,0,1-5.86-6.39l.15-.07a.8.8,0,0,0-.81-.06l.33.11a26.88,26.88,0,0,0,6.15,6.65c.51.38,1,.71,1.43,1l1.22,4a31.81,31.81,0,0,1-9.29,22.7c-.32.32-.66.63-1,.94a12.23,12.23,0,0,1-1.11,4c1.68.55,3,.6,3.81.14l.32-.17C35.48,45.83,34.19,45.79,32.52,45.26Z"/><path class="cls-1" d="M31.15,45.79a12.74,12.74,0,0,0,1.2-4.42c.43-.38.86-.79,1.29-1.21A32.86,32.86,0,0,0,43.26,18c-.63-2.18-.63-2.18-1-3.44-.47-.3-1-.65-1.49-1A27.54,27.54,0,0,1,36,8.77l0-.16a.59.59,0,0,0-.64.09c0,.05,0,.11,0,.16a1.1,1.1,0,0,0,.31,0,32.84,32.84,0,0,0,5.06,4.87q.8.6,1.5,1.05c.26.95.38,1.35.91,3.26a33.21,33.21,0,0,1-9.72,22c-.46.46-.93.9-1.4,1.31a12.27,12.27,0,0,1-1.23,4.56c1.71.59,3,.69,3.91.28L35,46C34.18,46.46,32.85,46.38,31.15,45.79Z"/><path class="cls-1" d="M29.77,46.24a12.76,12.76,0,0,0,1.31-5q.86-.75,1.71-1.59a34.48,34.48,0,0,0,10-21.41c-.21-.8-.48-1.88-.69-2.68-.48-.31-1-.67-1.52-1.07a32.47,32.47,0,0,1-7.74-8.42L33,6c-.11-.12-.37-.16-.75-.12l-.1.15a2,2,0,0,0,.35.1,34.75,34.75,0,0,0,8,8.65c.54.41,1,.77,1.53,1.08.18.75.43,1.74.62,2.49A34.93,34.93,0,0,1,32.56,39.55c-.59.6-1.2,1.15-1.81,1.67a12.46,12.46,0,0,1-1.33,5.12c1.73.64,3.09.79,4,.43l.32-.14C32.85,47,31.5,46.87,29.77,46.24Z"/><path class="cls-1" d="M28.39,46.61a12.5,12.5,0,0,0,1.38-5.53c.72-.6,1.43-1.24,2.12-1.94A36.53,36.53,0,0,0,42.28,18.47c-.13-.57-.31-1.32-.44-1.89-.48-.32-1-.68-1.51-1.08a32.72,32.72,0,0,1-6.1-6.06V9.28a.54.54,0,0,0-.72.17l.06.16a1,1,0,0,0,.34,0,41.18,41.18,0,0,0,6.35,6.1c.52.4,1,.75,1.5,1.08.12.5.27,1.18.39,1.68A37.1,37.1,0,0,1,31.67,39c-.73.72-1.47,1.4-2.22,2-.27,3.6-.82,4.61-1.4,5.67a6.33,6.33,0,0,0,4,.56l.33-.11A6.25,6.25,0,0,1,28.39,46.61Z"/><path class="cls-1" d="M27,46.91c.94-1.58,1.22-2.77,1.44-6.07.85-.69,1.69-1.45,2.53-2.28A39,39,0,0,0,41.7,18.64l-.22-1.07c-.47-.31-.95-.66-1.46-1A38.64,38.64,0,0,1,30.58,6.19l.1-.15a.78.78,0,0,0-.88,0l0,.16a1.89,1.89,0,0,0,.34.09,42.39,42.39,0,0,0,9.76,10.53c.49.37,1,.72,1.43,1l.18.85A39.68,39.68,0,0,1,30.73,38.4c-.86.85-1.74,1.65-2.62,2.37-.17,4-.85,5.19-1.45,6.2a6.75,6.75,0,0,0,4.06.69l.13,0h0l.21-.06A6.61,6.61,0,0,1,27,46.91Z"/><path class="cls-1" d="M46.76,16.45a41.13,41.13,0,0,0-2.54-4.14.57.57,0,0,1-.22.07,1.21,1.21,0,0,0-.2-.29s.35.84.48.87a1.69,1.69,0,0,0-.12-.28.62.62,0,0,0,.23-.07,40,40,0,0,1,2.48,4.16,2.22,2.22,0,0,0-.06-1.36,5,5,0,0,0-.35-1h0L46.27,14a8.5,8.5,0,0,1,.43,1.13A2.31,2.31,0,0,1,46.76,16.45Z"/><path class="cls-1" d="M47.52,19.08a37.69,37.69,0,0,0-2.12-4.3,1.34,1.34,0,0,1-.39.07c-.12-.26-.15-.29-.18-.31a2.48,2.48,0,0,0,.33.93h0a.8.8,0,0,0-.06-.3,1.32,1.32,0,0,0,.39-.06,36.66,36.66,0,0,1,2.08,4.32,2.61,2.61,0,0,0,0-1.83l-.09-.28A2.51,2.51,0,0,1,47.52,19.08Z"/><path class="cls-1" d="M45.85,16.05l-.2.05c-.11-.26-.14-.29-.17-.31a2.08,2.08,0,0,0,.32.95s0-.06,0-.32l.19,0a34.94,34.94,0,0,1,1.88,4.4A2.39,2.39,0,0,0,47.94,19l-.08-.35a2.45,2.45,0,0,1-.08,1.84A33.76,33.76,0,0,0,45.85,16.05Z"/><path class="cls-1" d="M47.6,17.59l0-.09-.12-.41a1.8,1.8,0,0,1,.06.22Z"/><path class="cls-1" d="M47.19,16.35s0-.09,0-.14a2.37,2.37,0,0,1,0,1.54,39.08,39.08,0,0,0-2.33-4.22,1,1,0,0,1-.52.07c-.12-.25-.15-.28-.19-.31a2.58,2.58,0,0,0,.4.92.74.74,0,0,0-.08-.3,1.11,1.11,0,0,0,.54-.07,38.35,38.35,0,0,1,2.28,4.24,2.49,2.49,0,0,0,0-1.59h0c0-.17-.12-.39-.18-.56l-.14-.38a5.67,5.67,0,0,1,.22.66A.78.78,0,0,0,47.19,16.35Z"/><path class="cls-1" d="M30.27,3.41c0,.11.06.22.1.33,2.37.91,2.37.91,7.61,3a13.08,13.08,0,0,0,2.6,3,8.27,8.27,0,0,0,.21-1.85,8.39,8.39,0,0,1-.22,1.65,12.33,12.33,0,0,1-2.35-2.69c-4.32-1.75-5.1-2.06-7.54-3a1.61,1.61,0,0,1-.09-.29c-.39-1.39,0-2.09,1-2.12a20,20,0,0,1,6.26,3.23l.14,0a1.28,1.28,0,0,0,.26.2,3.38,3.38,0,0,0-.61-.51l.13.13-.13-.06a20.57,20.57,0,0,0-6.32-3.15C30.29,1.25,29.87,2,30.27,3.41Z"/><path class="cls-1" d="M39.18,7.06c-3.8-1.73-5.49-2.45-7.27-3.22a.5.5,0,0,1,0-.13c-.33-1.2,0-1.83.8-1.89a18.86,18.86,0,0,1,6,3.53,2.28,2.28,0,0,1,.45.2,1,1,0,0,0,.2.18,2.59,2.59,0,0,0-.48-.5l.11.13a2.5,2.5,0,0,0-.48-.21A19.32,19.32,0,0,0,32.4,1.7c-.85.05-1.19.7-.85,2a.84.84,0,0,1,.05.17C33.32,4.53,35,5.21,38.94,7a9,9,0,0,0,1.65,1.91,7.9,7.9,0,0,0,.2-1.08,7,7,0,0,1-.19.91A7.52,7.52,0,0,1,39.18,7.06Z"/><path class="cls-1" d="M40.12,7.46c-3-1.56-4.8-2.4-7-3.42h0c-.28-1,0-1.57.63-1.66a17.52,17.52,0,0,1,5.72,3.84l.12,0,.21.23a4.28,4.28,0,0,0-.56-.65,1.56,1.56,0,0,0,.16.2l-.13,0a18.36,18.36,0,0,0-5.79-3.77c-.69.09-1,.65-.67,1.72V4C35,5,36.76,5.79,39.89,7.35a4.23,4.23,0,0,0,.77.92c.05-.16.1-.32.13-.46,0,.11-.06.21-.1.32A3.07,3.07,0,0,1,40.12,7.46Z"/><path class="cls-1" d="M40.77,7.79h0l0,0-.09-.13Z"/><path class="cls-1" d="M35.67,3.52c-.41.09-.57.46-.42,1.09,2.37,1.3,3.56,2,5.54,3.2C39,6.71,37.86,6,35.54,4.72c-.13-.59,0-.93.4-1a16.19,16.19,0,0,1,4.85,4.11A16.13,16.13,0,0,0,35.67,3.52Z"/><path class="cls-1" d="M36.75,4.27c-.29.09-.4.35-.32.81,2.21,1.31,2.76,1.68,4.36,2.73-1.79-1.2-2.54-1.67-4.06-2.6-.08-.41,0-.66.28-.74a16.36,16.36,0,0,1,3.78,3.34A16.31,16.31,0,0,0,36.75,4.27Z"/><path class="cls-1" d="M11.8,44.2l0,0c0,.16.38.27.47.28s.13,0,.17,0,0-.07-.09-.12A1,1,0,0,0,12,44.2c-.72-.57-1.44-1.17-2.15-1.81a11,11,0,0,1-3.28-1.54l.09.09a12.94,12.94,0,0,0,3.14,1.54C10.43,43.08,11.11,43.66,11.8,44.2Z"/><path class="cls-1" d="M10.63,44l0,0a1.14,1.14,0,0,0,.4.24c.1,0,.12,0,.15,0a.24.24,0,0,0-.07-.09,1.51,1.51,0,0,0-.31-.16c-.47-.37-.93-.75-1.39-1.16a8.6,8.6,0,0,1-2.13-1.3l.1.09a9.18,9.18,0,0,0,2,1.25C9.77,43.33,10.21,43.69,10.63,44Z"/><path class="cls-1" d="M11.59,44.85l-.28-.15-.74-.54c-.46-.35-.93-.73-1.39-1.13a8.61,8.61,0,0,1-1.52-1l.06,0,0,0a9.2,9.2,0,0,0,1.37,1c.43.37.87.72,1.31,1.05.24.19.48.36.71.53l-.06,0a2.1,2.1,0,0,0,.37.23h0l.2.08A.23.23,0,0,0,11.59,44.85Z"/><path class="cls-1" d="M47.7,28.7a2.35,2.35,0,0,1-1.69.4c0-.08,0-.32-.09-.34s-.52.74-.2,1c.07,0,.13,0,.23-.31A2.37,2.37,0,0,0,47.68,29a18.49,18.49,0,0,0,.75-5.15A4.47,4.47,0,0,0,48.5,23l0-.37a2.8,2.8,0,0,1-.07.91A18.8,18.8,0,0,1,47.7,28.7Z"/><path class="cls-1" d="M48.48,24.7a19.6,19.6,0,0,1-.9,5.2c-.65.62-1.84.68-3.43.19a30.62,30.62,0,0,0,1.09-5.85.93.93,0,0,0,0-.95c-.24.07-.24.73-.12.94a28.38,28.38,0,0,1-1.19,6.14c1.7.54,3,.49,3.63-.17a19.9,19.9,0,0,0,1-5.21,3.05,3.05,0,0,0,0-.52v-.36A2.88,2.88,0,0,1,48.48,24.7Z"/><path class="cls-1" d="M43.28,31.23c0-.09,0-.33-.11-.4s-.54.49-.45.82c0,.12.2.27.44-.11,2,.7,3.45.64,4.15-.18a17.11,17.11,0,0,0,1-4.23,19.83,19.83,0,0,1-1,3.94C46.67,31.86,45.25,31.91,43.28,31.23Z"/><path class="cls-1" d="M48.22,28.22v-.08a.51.51,0,0,0,0,.13A.07.07,0,0,1,48.22,28.22Z"/><path class="cls-1" d="M48.21,28.27c-.13.6-.22,1.05-.3,1.42C48,29.25,48.12,28.8,48.21,28.27Z"/><path class="cls-1" d="M48.23,28.14c0-.23.07-.48.1-.74Z"/><path class="cls-1" d="M45,33c0-.06,0-.23,0-.3s-.53.57-.47.83c0,.1.14.19.37-.21A2.39,2.39,0,0,0,47,32.5a18.85,18.85,0,0,0,.88-2.81c-.21.81-.46,1.55-.8,2.52A2.34,2.34,0,0,1,45,33Z"/><path class="cls-1" d="M39.15,43.45A7.93,7.93,0,0,0,41.58,39a7.47,7.47,0,0,1-1.48-.3c.09-.19.08-.29,0-.34-.32,0-.67.42-.69.64s.17.29.52,0a8.54,8.54,0,0,0,1.42.3,7.79,7.79,0,0,1-2.46,4.42l.16-.11h0l.29-.22Z"/><path class="cls-1" d="M24.82,3.12c.83,3,4.05,7.56,8.1,11.71-4.12,3.85-9.18,8.74-14,13.58-.95.95-1.86,1.86-2.79,2.7-.16,0-.53-.05-.59.35a.5.5,0,0,0,.41.58.48.48,0,0,0,.33-.06.52.52,0,0,0,.15-.61l2.72-2.72c4.94-4.92,10.06-9.93,14.17-13.86C29.22,10.67,26,6.12,25.15,3.1,24.54.91,25.33,0,27.08.16l-.37,0C25-.06,24.21.92,24.82,3.12Z"/><path class="cls-1" d="M12.06,36a.46.46,0,0,0,.6.22c.1-.05.29-.28,0-.63s-.56-.15-.65.09c-6.15-.63-7.61-.78-8.67-.19A16.33,16.33,0,0,1,1,31.08l.12.4a16.35,16.35,0,0,0,2.32,4.26C3.86,35.45,4.53,35,12.06,36Z"/><path class="cls-1" d="M10.92,34.82a.44.44,0,0,0,.59.22s.32-.24,0-.65-.55-.14-.64.11C5.73,34,4.29,34,3.11,34.56a16.85,16.85,0,0,1-2.46-4.7l-.06-.25L.67,30c0,.06,0,.12,0,.17a16.27,16.27,0,0,0,2.44,4.65C3.64,34.53,4.52,34,10.92,34.82Z"/><path class="cls-1" d="M23.5,3.21c.83,3,3.95,7.52,7.92,11.72-4.12,3.55-8.94,8-13.47,12.52a2,2,0,0,1-.48.38.51.51,0,1,0-.26,1,.48.48,0,0,0,.37-.07.52.52,0,0,0,.19-.64l.41-.41c4.62-4.6,9.5-9.16,13.62-12.78-4-4.19-7.14-8.69-8-11.73C23.22,1,23.94-.06,25.6,0l-.28,0h-.09C23.59,0,22.89,1,23.5,3.21Z"/><path class="cls-1" d="M2.79,32.72c.62-.25,1.77-.7,6.3-.32.2.36.47.27.55.21a.5.5,0,0,0,0-.69c-.28-.26-.52-.14-.59.14-3.82-.18-5-.11-6.29.38A17.93,17.93,0,0,1,.29,27.58a5.4,5.4,0,0,1-.18-1l0,.38a5.35,5.35,0,0,0,.17.87A18,18,0,0,0,2.79,32.72Z"/><path class="cls-1" d="M20.86,3.59c.82,3,3.64,7.23,7.34,11.4a120.17,120.17,0,0,0-12,10.51,2,2,0,0,1-.48.38.51.51,0,0,0-.63.39.48.48,0,0,0,.72.53.55.55,0,0,0,.2-.65l.41-.41A131.64,131.64,0,0,1,28.62,15C24.87,10.81,22,6.53,21.19,3.53c-.62-2.24,0-3.39,1.54-3.48l-.36,0C20.85.18,20.24,1.34,20.86,3.59Z"/><path class="cls-1" d="M2.61,30.42a12.64,12.64,0,0,1,4.26-.53c.13.35.38.36.5.23a.57.57,0,0,0,0-.71c-.26-.27-.46-.11-.53.18a12.11,12.11,0,0,0-4.24.53A18.61,18.61,0,0,1,.23,25.26,5.18,5.18,0,0,1,0,23.74v.37a5.84,5.84,0,0,0,.22,1.44A18.63,18.63,0,0,0,2.61,30.42Z"/><path class="cls-1" d="M2.63,27.94a12.16,12.16,0,0,1,2.57-.47c.09.31.31.36.45.2a.67.67,0,0,0,0-.73c-.24-.28-.43,0-.48.21a12,12,0,0,0-2.53.47,19.06,19.06,0,0,1-2.2-4.69,5,5,0,0,1-.22-2l-.05.35a5.5,5.5,0,0,0,.22,2A19.4,19.4,0,0,0,2.63,27.94Z"/><path class="cls-1" d="M3.22,25a26.47,26.47,0,0,1,5.58-.51,44.31,44.31,0,0,1,3.43-3.82,40.38,40.38,0,0,1,4.3-3.75.56.56,0,0,0,.42-.05.53.53,0,0,0,.21-.71l-.06-.07a.55.55,0,0,0-.81.57,50.32,50.32,0,0,0-4.24,3.77A42.25,42.25,0,0,0,8.7,24.18a24.61,24.61,0,0,0-5.42.51A20,20,0,0,1,1.13,20,5,5,0,0,1,1,17.39l-.1.34a4.91,4.91,0,0,0,.17,2.57A20.14,20.14,0,0,0,3.22,25Z"/><path class="cls-1" d="M3.47,23.67a27,27,0,0,1,5-.5,38.57,38.57,0,0,1,3.09-3.43c.52-.53,1.06-1,1.61-1.53a.47.47,0,0,0,.47,0,.53.53,0,0,0,.14-.81c-.27-.24-.87.05-.78.61-.55.5-1.09,1-1.61,1.53a39.5,39.5,0,0,0-3,3.34,24.32,24.32,0,0,0-4.8.5,19.62,19.62,0,0,1-2-4.48A4.86,4.86,0,0,1,1.42,16l-.12.34a4.84,4.84,0,0,0,.13,2.76A19.93,19.93,0,0,0,3.47,23.67Z"/><path class="cls-1" d="M4.6,19.56a25.81,25.81,0,0,1,3-.37c.64-.75,1.32-1.5,2.07-2.25a37.54,37.54,0,0,1,4.3-3.67.47.47,0,0,0,.46,0h0s.47-.27.29-.67l0-.06c-.23-.21-.85,0-.83.53A35.86,35.86,0,0,0,9.5,16.72c-.71.7-1.37,1.42-2,2.15a23.48,23.48,0,0,0-2.79.34A19.44,19.44,0,0,1,3.18,15.5a4.53,4.53,0,0,1,0-3.34L3,12.48a4.49,4.49,0,0,0,0,3.3A19.18,19.18,0,0,0,4.6,19.56Z"/><path class="cls-1" d="M39.37,20c-.15-.09-.23,0-.35.1l-.27-.2a53,53,0,0,1-4-3.44c-3.6,4.38-8.36,9.63-13.25,14.5L20,32.46c.08,3.32.35,6.63.37,9.95a.86.86,0,0,0-.29.21.54.54,0,0,0,.95.2c0-.22,0-.26-.31-.38,0-3.29-.28-6.56-.38-9.84l1.43-1.41a186.91,186.91,0,0,0,13-14.35C36,18,37.3,19.15,38.63,20.17a.83.83,0,0,1,.26.27c0,.33.07.34.26.43a.56.56,0,0,0,.27-.19h0A.59.59,0,0,0,39.37,20Z"/><path class="cls-1" d="M36.15,23.18a.53.53,0,0,0,.34-.88c-.18-.09-.24-.09-.44.05-.43-.35-.86-.7-1.28-1.06A87.61,87.61,0,0,1,24.48,33.66l-.34.33c.07,2.52.07,2.52.06,3.94a.44.44,0,0,0-.26.3c-.06.34.39.64.83.42h0c.29-.16.34-.58-.15-.76-.06-1.73-.06-1.73-.12-3.78l.23-.23A83.9,83.9,0,0,0,34.8,21.71c.36.31.72.61,1.09.9C35.82,23.07,36.05,23.16,36.15,23.18Z"/><path class="cls-1" d="M40.8,7.83v0l.21.26Z"/><path class="cls-1" d="M46,18.89l-3.2-7.2a1,1,0,0,0-.16-.28h0s.19.77.34.81c1.69,3.55,2.44,5.46,3.05,7a2.88,2.88,0,0,0,.59,0c.07.23.1.26.15.3s.05-.1,0-.41a1.72,1.72,0,0,0-.18-.54h-.05a1.15,1.15,0,0,0,0,.32A2.45,2.45,0,0,1,46,18.89Z"/><path class="cls-1" d="M39.79,5.61l-.21-.18-.13-.1h0l-.14-.12.46.39Z"/><path class="cls-1" d="M32.6,1.49l.6.23A22.3,22.3,0,0,1,36,3.09a11,11,0,0,1,1.39.76A11.3,11.3,0,0,0,35.81,3,20.11,20.11,0,0,0,32.4,1.41l.2.08Z"/><path class="cls-1" d="M38,4.28c-.22-.16-.43-.3-.64-.43l.22.15Z"/><path class="cls-1" d="M22.17,3.37C23,6.4,26,10.78,29.84,15A167.85,167.85,0,0,0,17,26.47c-.95,1-1.85,1.87-2.76,2.73a.43.43,0,0,0-.57.36.49.49,0,0,0,.71.53.5.5,0,0,0,.15-.62c.84-.89,1.74-1.8,2.7-2.75,4.28-4.28,8.9-8.42,13-11.75-3.89-4.2-6.9-8.61-7.74-11.65C21.89,1.1,22.56,0,24.16,0H23.8C22.22,0,21.56,1.14,22.17,3.37Z"/><path class="cls-1" d="M19.55,3.87c.81,2.92,3.44,7,7,11.08a97.28,97.28,0,0,0-11.2,9.56c-1,.95-1.85,1.88-2.73,2.76a.43.43,0,0,0-.56.37c-.07.4.3.76.67.53a.55.55,0,0,0,.16-.63c.83-.9,1.72-1.83,2.67-2.78A102.39,102.39,0,0,1,26.94,15c-3.56-4.11-6.25-8.23-7-11.18-.62-2.24-.05-3.43,1.4-3.61l-.35.05C19.5.42,18.94,1.63,19.55,3.87Z"/><path class="cls-1" d="M17,4.62c.75,2.73,3,6.39,6,10.17a69.37,69.37,0,0,0-9.34,7.77c-.95,1-1.83,1.89-2.7,2.78a.43.43,0,0,0-.53.31s0,.05,0,.07c-.07.4.28.77.64.52a.56.56,0,0,0,.16-.63c.81-.92,1.7-1.86,2.65-2.81a71.1,71.1,0,0,1,9.59-8C20.35,11,18.06,7.27,17.3,4.51,16.68,2.27,17.17,1,18.5.69l-.35.08C16.84,1.11,16.36,2.38,17,4.62Z"/><path class="cls-1" d="M3.78,22.31a25.17,25.17,0,0,1,4.32-.47,36.21,36.21,0,0,1,2.75-3.05,44.54,44.54,0,0,1,4.27-3.73.48.48,0,0,0,.48,0s.46-.27.24-.68a.18.18,0,0,0-.05-.07.55.55,0,0,0-.82.55,41.89,41.89,0,0,0-4.27,3.71,35.48,35.48,0,0,0-2.67,3A24.59,24.59,0,0,0,3.88,22,19.89,19.89,0,0,1,2,17.72a4.69,4.69,0,0,1-.07-3l-.08.18L1.8,15a4.71,4.71,0,0,0,.09,3A19.89,19.89,0,0,0,3.78,22.31Z"/><path class="cls-1" d="M7.81,20.51a35.68,35.68,0,0,1,2.42-2.65c.52-.53,1.06-1,1.62-1.53a.41.41,0,0,0,.45,0c.3-.2.39-.6.18-.79s-.84.05-.78.6c-.56.5-1.1,1-1.62,1.53a32,32,0,0,0-2.33,2.55,27.36,27.36,0,0,0-3.49.41c-2.57-4.78-2-6.39-1.73-7.17l-.16.33c-.88,2.08.93,5.53,1.79,7.19A26.35,26.35,0,0,1,7.81,20.51Z"/><path class="cls-1" d="M5.12,18.18c.67-.11,1.58-.21,2.26-.29.53-.62,1.11-1.24,1.72-1.84s1.07-1,1.62-1.52a.39.39,0,0,0,.43,0c.3-.19.41-.59.22-.77s-.8.07-.78.6c-.56.49-1.1,1-1.62,1.52S7.85,17,7.34,17.57c-.63.06-1.46.18-2.08.27a18.48,18.48,0,0,1-1.4-3.42c-.44-1.6-.38-2.76.1-3.49l-.2.31a4.4,4.4,0,0,0-.08,3.45A19.48,19.48,0,0,0,5.12,18.18Z"/><path class="cls-1" d="M5.71,16.81c.46-.07,1.07-.14,1.54-.2.43-.49.88-1,1.35-1.44a33.23,33.23,0,0,1,4.33-3.62.48.48,0,0,0,.45,0h0s.46-.26.32-.65l0-.05c-.21-.21-.83,0-.84.5A32.74,32.74,0,0,0,8.48,15c-.44.44-.86.88-1.26,1.33-.41,0-1,.13-1.36.18a18.63,18.63,0,0,1-1.23-3.11c-.46-1.68-.38-2.88.17-3.61L4.58,10c-.53.73-.6,1.92-.14,3.58A17.25,17.25,0,0,0,5.71,16.81Z"/><path class="cls-1" d="M10,7.16a.78.78,0,0,0-.24.33c-.05.2.16.21.38.09a1.11,1.11,0,0,0,.45-.46c0-.11,0-.29-.31-.15-.28-1.59,0-2.63.85-3.15l-.31.2C10.07,4.54,9.76,5.58,10,7.16Z"/><path class="cls-1" d="M13.53,8.1c-.49.43-.33.77,0,.79a.77.77,0,0,0,.34-.07h0c.28-.11.72-.49.51-.83a.53.53,0,0,0-.56-.06,12.7,12.7,0,0,1-.6-1.7c-.6-2.17-.24-3.5.87-4l-.32.15c-1.1.52-1.44,1.85-.85,4A17.32,17.32,0,0,0,13.53,8.1Zm.52,0c.18.07.08.32-.16.45s-.28.09-.35,0,.31-.49.51-.41Z"/><path class="cls-1" d="M9.4,9.67a1,1,0,0,0-.18.31c-.06.27.15.36.43.19h0A.93.93,0,0,0,10,9.73c.07-.2,0-.42-.35-.27-.1-.28-.19-.55-.26-.82-.56-2-.32-3.36.56-4l-.29.21c-.87.65-1.1,2-.54,4C9.21,9.11,9.3,9.39,9.4,9.67Z"/><path class="cls-1" d="M8,9.24a1.13,1.13,0,0,0,.41-.51c0-.12,0-.3-.29-.13-.26-1.49,0-2.5.68-3.07l-.29.24c-.66.57-.91,1.58-.65,3.05a1,1,0,0,0-.22.36C7.62,9.4,7.82,9.39,8,9.24Z"/><path class="cls-1" d="M37.87,22.81c.05.36.38.43.59.14a.57.57,0,0,0,0-.71c-.18-.06-.22-.08-.4.08l-.3-.23c-1-.77-2-1.6-3-2.48A106.65,106.65,0,0,1,23.46,32.78l-.73.72c.05,1.93.14,3.85.18,5.78a.45.45,0,0,0-.3.29c-.07.34.45.61.81.43.19-.1.43-.49-.14-.72-.15-4-.15-4-.2-5.65l.64-.63a102.22,102.22,0,0,0,11-13c.95.82,1.91,1.6,2.87,2.35a.81.81,0,0,1,.29.29Z"/><path class="cls-1" d="M21.29,40.49c-.07.29.38.58.79.42.18-.1.43-.45-.13-.68-.09-2.37-.2-4.74-.27-7.11l1-1a129.25,129.25,0,0,0,12-13.71c.8.72,1.62,1.42,2.44,2.09-.06.42.13.51.24.52a.52.52,0,0,0,.3-.85c-.18-.09-.23,0-.4.06-.87-.7-1.73-1.45-2.58-2.22A140.43,140.43,0,0,1,22.46,31.88L21.32,33c0,1.25,0,1.25.28,7.23A.42.42,0,0,0,21.29,40.49Z"/><path class="cls-1" d="M16.33,46.37s0,0-.06-.08a1,1,0,0,0-.72-.13c0,.12.36.21.48.23a12.07,12.07,0,0,0,4,1.78l.37.06a12.46,12.46,0,0,1-4.2-1.83C16.3,46.4,16.3,46.4,16.33,46.37Z"/><path class="cls-1" d="M18.37,47.75l0,0a7.86,7.86,0,0,0-.84-.19,2.44,2.44,0,0,0,.44.13l.69.21.22,0L19,48a5.48,5.48,0,0,1-.79-.23A.35.35,0,0,0,18.37,47.75Z"/><path class="cls-1" d="M15.08,46.44s0,0,0,0a2.07,2.07,0,0,0-.68-.21h0a1.82,1.82,0,0,0,.43.19,11.94,11.94,0,0,0,2.29,1.07l.39.12A12.47,12.47,0,0,1,15,46.44.14.14,0,0,0,15.08,46.44Z"/><path class="cls-1" d="M15.58,46.93h0l.64.24h0Z"/><path class="cls-1" d="M13,45.3a1.46,1.46,0,0,0-.36-.16c-.29-.21-.6-.43-.91-.67C11,43.92,10.3,43.32,9.6,42.7a9.85,9.85,0,0,1-2.71-1.47L7,41.3l0,0a9.76,9.76,0,0,0,2.57,1.44c.67.59,1.35,1.16,2,1.68l.89.66h0v0a1.46,1.46,0,0,0,.43.22c.13,0,.14,0,.21,0Z"/><path class="cls-1" d="M2.67,31.6c.58-.24,1.93-.78,7.54-.34.21.39.51.27.58.22a.51.51,0,0,0,0-.72c-.29-.27-.55-.14-.64.14-4.78-.21-6.12-.08-7.52.4A18.41,18.41,0,0,1,.23,26.42,5.76,5.76,0,0,1,0,25.18l0,.37a5.77,5.77,0,0,0,.21,1.16A18.36,18.36,0,0,0,2.67,31.6Z"/><path class="cls-1" d="M2.59,29.2a15.57,15.57,0,0,1,5.77-.5c.19.39.46.27.55.2a.56.56,0,0,0,0-.74c-.23-.24-.5-.17-.6.17-3.83,0-4.67.25-5.73.57A19,19,0,0,1,.3,24.1a5.38,5.38,0,0,1-.23-1.79l0,.28v.07a5.32,5.32,0,0,0,.23,1.73A18.79,18.79,0,0,0,2.59,29.2Z"/><path class="cls-1" d="M40.76,9.9c-.16.08-.21.77-.06.79s.11-.09.13-.24a1.25,1.25,0,0,0,0-.51,8.92,8.92,0,0,0,0-2.13A8.13,8.13,0,0,1,40.76,9.9Zm0,.45c0,.06,0,.16-.07.13s0-.39,0-.39S40.81,10.23,40.78,10.35Z"/><path class="cls-1" d="M27.11,3.11c.09.32.2.63.32.94l1.64.49c-.18.17.21.31.56.33h0c.22,0,.79,0,.62-.23a1.45,1.45,0,0,0-.78-.19c-.26,0-.26,0-1.73-.45a7,7,0,0,1-.3-.88C27,1.39,27.46.52,28.68.49l1.46.3s.78.25,1,.28A10.62,10.62,0,0,0,28.4.42C27.14.44,26.62,1.33,27.11,3.11Zm2.8,1.51c.09,0,.09.1,0,.13l-.22,0h0a.5.5,0,0,1-.33-.11C29.3,4.53,29.72,4.52,29.91,4.62ZM30.27.8a3.09,3.09,0,0,1,.59.18l-.4-.11L30.26.8Z"/><path class="cls-1" d="M39.27,6.3s.06.07.29.28L40,7c.27.26.53.53.79.81Q40.4,7.39,40,7A9.74,9.74,0,0,0,39.27,6.3Z"/><path class="cls-1" d="M40.44,7.46l.12.12,0,0Z"/><path class="cls-1" d="M40.56,7.58l.23.23-.16-.16Z"/><path class="cls-1" d="M39.21,6.34,40,7l.47.44L40,7A8.09,8.09,0,0,0,39.21,6.34Z"/><path class="cls-1" d="M38.55,6.08a3.59,3.59,0,0,0-.83-.52,4,4,0,0,0,.34.23s.35.23.49.3A25.62,25.62,0,0,1,40.6,7.64l.19.17-.31-.26A22.34,22.34,0,0,0,38.55,6.08Z"/><path class="cls-1" d="M40,7a9.59,9.59,0,0,0-.75-.68l.3.28L40,7c.27.26.54.52.8.8C40.53,7.53,40.26,7.26,40,7Z"/><path class="cls-1" d="M37.73,5.64a2.44,2.44,0,0,0,.33.23l.49.29,1.06.76c-.34-.25-.7-.48-1-.71a3.57,3.57,0,0,0-.82-.47,2.46,2.46,0,0,0,.34.22,4.84,4.84,0,0,0,.48.27c.47.29.93.6,1.37.93l.86.64a24.47,24.47,0,0,0-2.24-1.66A4.88,4.88,0,0,0,37.73,5.64Z"/><path class="cls-1" d="M46.09,22.68l-.57-1.88c0-.43-.1-1-.27-1-.23.21,0,1.26.12,1.31a.09.09,0,0,0,.08-.05c.19.59.43,1.37.61,2a2,2,0,0,0,1.88-.37l.19.76a3.74,3.74,0,0,0,.09.88h0A3,3,0,0,0,48.19,23h0a.77.77,0,0,0,0,.15c-.07-.26-.16-.59-.22-.84A2,2,0,0,1,46.09,22.68Zm-.73-1.92c-.14-.06-.14-.62-.07-.65s.13.17.14.38h0c0,.1,0,.28-.07.27ZM48.2,23.3a.81.81,0,0,1,0,.31h0a1.29,1.29,0,0,1,0,.34s-.05-.16-.06-.27a1,1,0,0,1,0-.38Z"/><path class="cls-1" d="M46.05,26s.16,0,.23-.48a2.56,2.56,0,0,0,1.44-.19c0,.31.05.4.09.43s.13-.58.13-.61h0c0-.06,0-.59-.09-.71h0v0a1.4,1.4,0,0,0-.09.53,2.48,2.48,0,0,1-1.41.19c0-.59-.19-.55-.25-.48C45.86,24.94,45.8,26,46.05,26Zm1.77-1.22s0,0,0,0a.92.92,0,0,1,0,.29h0c0,.1,0,.29-.06.33s-.06-.55,0-.65ZM46.1,25c.07,0,.12.16.1.38s0,.28-.12.28-.07-.61,0-.66Z"/><path class="cls-1" d="M35.47,27.33a.35.35,0,0,0,.27.21.53.53,0,0,0,.36-.91.48.48,0,0,0-.67.38c-.87.22-2,.48-2.93.66a64.77,64.77,0,0,1-4.88,5.84c.08,1.69.08,1.69.14,3.75l1.23.88a38.53,38.53,0,0,1-3,2.58c-.49-.09-.66.14-.7.22-.19.34.33.63.75.42a.34.34,0,0,0,.19-.48,37.46,37.46,0,0,0,3.23-2.8c-.45-.31-.9-.64-1.37-1,0-1.05-.08-2.44-.13-3.49A64.79,64.79,0,0,0,32.66,28C33.51,27.8,34.63,27.54,35.47,27.33Z"/><path class="cls-1" d="M32.34,34.19c-.06.43.42.62.77.31h0a.51.51,0,0,0,.13-.62,42.76,42.76,0,0,0,7.13-13.24,18.38,18.38,0,0,1-.28-2.33.56.56,0,0,0-.09-.57.23.23,0,0,0-.2,0c-.17.11-.36.74,0,.84.09.62.23,1.45.33,2.07A43.55,43.55,0,0,1,33,33.72.56.56,0,0,0,32.34,34.19Z"/><path class="cls-1" d="M5.49,9.5c.2-.21.48-.58.43-.65s-.08,0-.19.13a2.13,2.13,0,0,1,.48-1L6,8.3a2.22,2.22,0,0,0-.47.93c-.22.3-.25.39-.25.44h0S5.34,9.66,5.49,9.5Z"/><path class="cls-1" d="M18.31,41.81a.38.38,0,0,0,.18-.13c.13-.22-.19-.58-.66-.5-.52-.43-1-.87-1.57-1.32-.27-3.72-.27-3.72-.36-5.25l1.58-1.53a.79.79,0,0,0,.22.06.46.46,0,0,0,.31-.81.91.91,0,0,0-.16-.11.47.47,0,0,0-.61.64c-.57.56-1.12,1.09-1.66,1.6.1,1.62.1,1.62.39,5.46.55.47,1.1.94,1.65,1.39a.08.08,0,0,0,0,0C17.49,41.64,18,41.94,18.31,41.81Z"/><path class="cls-1" d="M26.48,42.58a.57.57,0,0,0-.24-.19c-.66-.21-1.2.24-1,.56l0,.06a23,23,0,0,1-3.11,1.63c.62.41,1.21.77,1.79,1.1-.34.24,0,.38.16.41a1.47,1.47,0,0,0,.59,0c.37-.1.5-.31.26-.44a1.07,1.07,0,0,0-.75-.06c-.52-.29-1.05-.61-1.6-1a23.24,23.24,0,0,0,2.88-1.52C26.14,43.35,26.65,42.9,26.48,42.58Zm-.68,0c.26,0,.46.12.35.29l-.11.09a.51.51,0,0,1-.45,0c-.18-.14,0-.34.21-.38Zm-1.48,3.21c.24-.05.48,0,.42.15a.32.32,0,0,1-.16.09.61.61,0,0,1-.42,0c-.14-.08,0-.19.16-.22Z"/><path class="cls-1" d="M37.1,43.84a24.84,24.84,0,0,0,1.95-1.75c.14-.13.27-.27.4-.41a1.07,1.07,0,0,0,.41-.28s.39-.39.2-.46-.79.54-.74.73l-.4.41c-.55.55-1.12,1.06-1.7,1.54a9.12,9.12,0,0,1-1.16-.22c.18-.5.33-1.19.51-1.69,0-.05.08-.05.12-.09a.57.57,0,0,0,.25-.4c0-.26-.51-.12-.79.22s-.16.43.12.4c-.14.53-.36,1.23-.53,1.75A7.76,7.76,0,0,0,37.1,43.84Z"/><path class="cls-1" d="M43.44,38.23c-.22.09-.67.72-.6.83s0,0,.12-.06a7,7,0,0,1-1.83,2.74l.28-.27h0l.37-.38a7.24,7.24,0,0,0,1-1.37,9.76,9.76,0,0,1,.42-.93,2.61,2.61,0,0,0,.19-.27c.13-.22.12-.26.1-.29Z"/><path class="cls-1" d="M41.86,41l-.08.09h0Z"/><path class="cls-1" d="M10,42h0c.15,0,.25-.21-.08-.48s-.5-.14-.54,0A15.74,15.74,0,0,1,6,40.23l.09.1a20.72,20.72,0,0,0,3.37,1.3A.64.64,0,0,0,10,42Zm-.34-.45c.16,0,.35.2.27.28l0,0h0a.3.3,0,0,1-.25-.09C9.55,41.62,9.58,41.52,9.68,41.52Z"/><path class="cls-1" d="M12.36,33.8A.45.45,0,0,0,13,34a.44.44,0,0,0,0-.68c-.32-.27-.6-.15-.69.12-6.05-.45-7.88-.58-9.41.07A17.32,17.32,0,0,1,.44,28.72a5.61,5.61,0,0,1-.13-.59l.06.37q0,.24.12.51A17.55,17.55,0,0,0,3,33.79C3.5,33.5,4.52,33,12.36,33.8Z"/><path class="cls-1" d="M21.24,14.68a61.25,61.25,0,0,0-8.34,6.9l-.41.42a.5.5,0,0,0-.67.36c-.1.42.24.78.64.53a.6.6,0,0,0,.22-.65l.41-.41a62.21,62.21,0,0,1,8.59-7.12C18.83,11.08,16.76,7.6,16,5c-.62-2.23-.17-3.52,1.09-3.91l-.34.11c-1.24.4-1.68,1.7-1.07,3.92C16.44,7.68,18.46,11.1,21.24,14.68Z"/><path class="cls-1" d="M18.26,4.22c.78,2.83,3.22,6.71,6.51,10.66a81.14,81.14,0,0,0-10.3,8.66,2.12,2.12,0,0,1-.47.38.5.5,0,0,0-.62.39.46.46,0,0,0,.68.53.57.57,0,0,0,.21-.65l.41-.41a83.36,83.36,0,0,1,10.53-8.87c-3.35-4-5.84-7.93-6.63-10.78C18,1.87,18.49.64,19.89.39l-.35.07C18.16.72,17.64,2,18.26,4.22Z"/><g class="cls-2"><path class="cls-3" d="M18.47,24.12A2,2,0,0,1,19,22.76a1.91,1.91,0,0,1,2.66,0,1.88,1.88,0,0,1,.57,1.36V38.67A1.72,1.72,0,0,1,21.67,40,1.88,1.88,0,0,1,19,40a1.83,1.83,0,0,1-.54-1.35V33a.16.16,0,0,0,0-.09.36.36,0,0,1-.05-.09.25.25,0,0,0-.18-.08H14.47a.29.29,0,0,0-.19.08.26.26,0,0,0-.07.18v5.72A1.84,1.84,0,0,1,13.66,40a1.79,1.79,0,0,1-1.33.55,1.86,1.86,0,0,1-1.89-1.9V24.12A2,2,0,0,1,11,22.76a1.86,1.86,0,0,1,1.35-.54,1.82,1.82,0,0,1,1.33.54,2,2,0,0,1,.55,1.36v5a.24.24,0,0,0,.07.18.29.29,0,0,0,.19.08h3.74a.25.25,0,0,0,.18-.08l.05-.09a.12.12,0,0,0,0-.09v-5Z"/><path class="cls-3" d="M35,31.81a4.78,4.78,0,0,1,1.14,2.52,4.94,4.94,0,0,1,.06,1.43,8.06,8.06,0,0,1-.29,1.38,5,5,0,0,1-1.48,2.29A5.69,5.69,0,0,1,32,40.73a7.23,7.23,0,0,1-3,.1,6.13,6.13,0,0,1-2.73-1.14,4.48,4.48,0,0,1-1-.94,5.91,5.91,0,0,1-.68-1.09,1.68,1.68,0,0,1-.16-.9,2,2,0,0,1,.29-.82,1.82,1.82,0,0,1,.64-.59,1.7,1.7,0,0,1,.89-.24,1.78,1.78,0,0,1,1,.29,1.57,1.57,0,0,1,.65.75,1.28,1.28,0,0,0,.11.2l.15.19a.55.55,0,0,0,.14.22l.19.2a2.68,2.68,0,0,0,.95.52,2.84,2.84,0,0,0,1.08.1,2.25,2.25,0,0,0,1-.34,1.88,1.88,0,0,0,.73-.8,2.16,2.16,0,0,0,.25-1.17,2,2,0,0,0-.38-1,2.58,2.58,0,0,0-.82-.75,6.25,6.25,0,0,0-1.05-.48c-.59-.2-1.19-.42-1.79-.65a8.56,8.56,0,0,1-1.69-.83,6,6,0,0,1-1.39-1.21,4.27,4.27,0,0,1-.85-1.72,5.74,5.74,0,0,1,0-2.57,5.33,5.33,0,0,1,1-2.14,5.66,5.66,0,0,1,1.87-1.47,6.12,6.12,0,0,1,2.47-.61,6.33,6.33,0,0,1,3.07.6,6.23,6.23,0,0,1,1.25.78,4.35,4.35,0,0,1,1,1.09,1.81,1.81,0,0,1,.28,1,2.13,2.13,0,0,1-.2.91,2,2,0,0,1-.65.69,1.75,1.75,0,0,1-1,.27h0a1.7,1.7,0,0,1-.91-.26,2.22,2.22,0,0,1-.68-.65,2.46,2.46,0,0,0-.28-.41l-.21-.2-.24-.19a1.89,1.89,0,0,0-1.16-.33,2.67,2.67,0,0,0-1.15.35,2.21,2.21,0,0,0-.77.86,1.69,1.69,0,0,0-.09,1.22,1.81,1.81,0,0,0,.47.85,4.08,4.08,0,0,0,.78.56,7.14,7.14,0,0,0,.94.39c.33.1.64.2.93.31l1,.38a7.8,7.8,0,0,1,1,.45,7.72,7.72,0,0,1,.91.57A4.32,4.32,0,0,1,35,31.81Z"/></g><g class="cls-2"><path class="cls-4" d="M17.64,23.56a2,2,0,0,1,.54-1.35,1.8,1.8,0,0,1,1.33-.55,1.77,1.77,0,0,1,1.32.55,1.82,1.82,0,0,1,.58,1.35V38.12a1.73,1.73,0,0,1-.58,1.35,1.8,1.8,0,0,1-1.32.54,1.84,1.84,0,0,1-1.87-1.89V32.4a.12.12,0,0,0,0-.09l-.05-.09a.22.22,0,0,0-.18-.08H13.63a.22.22,0,0,0-.18.08.25.25,0,0,0-.08.18v5.72a1.89,1.89,0,1,1-3.77,0V23.56a2,2,0,0,1,.55-1.35,1.91,1.91,0,0,1,2.68,0,2,2,0,0,1,.54,1.35v5a.27.27,0,0,0,.08.18.25.25,0,0,0,.18.08h3.75a.25.25,0,0,0,.18-.08.36.36,0,0,1,.05-.09.16.16,0,0,0,0-.09v-5Z"/><path class="cls-4" d="M34.17,31.25a4.85,4.85,0,0,1,1.14,2.53,4.59,4.59,0,0,1,0,1.43,7.24,7.24,0,0,1-.28,1.37,4.93,4.93,0,0,1-1.48,2.29,5.48,5.48,0,0,1-2.42,1.3,7.07,7.07,0,0,1-3,.1,5.91,5.91,0,0,1-2.73-1.14,4.21,4.21,0,0,1-1-.93,6,6,0,0,1-.68-1.1,1.64,1.64,0,0,1-.16-.89,1.87,1.87,0,0,1,.29-.82,1.94,1.94,0,0,1,.64-.6,1.67,1.67,0,0,1,.89-.23,1.71,1.71,0,0,1,1,.28,1.45,1.45,0,0,1,.65.76l.12.19.14.2a.86.86,0,0,0,.15.22l.19.19a2.53,2.53,0,0,0,1,.52,2.85,2.85,0,0,0,1.08.11,2.42,2.42,0,0,0,1-.34,1.85,1.85,0,0,0,.73-.81,2.12,2.12,0,0,0,.25-1.17,2.09,2.09,0,0,0-.38-1,2.67,2.67,0,0,0-.82-.74,5.49,5.49,0,0,0-1.05-.48l-1.79-.65A9.15,9.15,0,0,1,26,31.05a6.27,6.27,0,0,1-1.39-1.21,4.19,4.19,0,0,1-.85-1.73,5.69,5.69,0,0,1,0-2.56,5.24,5.24,0,0,1,1-2.15,5.89,5.89,0,0,1,4.34-2.07,6.3,6.3,0,0,1,4.32,1.37,4.53,4.53,0,0,1,1,1.09,1.87,1.87,0,0,1,.28,1,1.79,1.79,0,0,1-.85,1.59,1.68,1.68,0,0,1-1,.28h0a1.8,1.8,0,0,1-.91-.26,2.23,2.23,0,0,1-.68-.65A2.78,2.78,0,0,0,31,25.3l-.21-.19-.24-.2a1.83,1.83,0,0,0-1.17-.32,2.42,2.42,0,0,0-1.14.35,2.14,2.14,0,0,0-.77.86A1.69,1.69,0,0,0,27.33,27a1.78,1.78,0,0,0,.47.84,3.36,3.36,0,0,0,.78.56,4.89,4.89,0,0,0,.94.39l.93.31,1,.38a6.63,6.63,0,0,1,1,.46,7.72,7.72,0,0,1,.91.57A4.64,4.64,0,0,1,34.17,31.25Z"/></g><path class="cls-5" d="M39.11,11l-.27.13s0,.23.29.18A2.71,2.71,0,0,1,39.11,11Z"/><path class="cls-5" d="M39.05,12.33a1,1,0,0,1-1.1-.78l.4-.19c0,.07.1.61.81.53l0,.43Z"/><path class="cls-5" d="M39,13.33a2,2,0,0,1-1.91-1.39l.39-.18A1.62,1.62,0,0,0,39.2,12.9l0,.42A1,1,0,0,1,39,13.33Z"/><path class="cls-5" d="M38.88,14.38A2.79,2.79,0,0,1,37,13.62a2.64,2.64,0,0,1-.88-1.25l.39-.18a2.66,2.66,0,0,0,.78,1.11,2.26,2.26,0,0,0,1.94.63l0,.43A1.59,1.59,0,0,1,38.88,14.38Z"/><path class="cls-5" d="M39.3,15.46a4.76,4.76,0,0,1-4.13-2.66l.39-.18A4.33,4.33,0,0,0,39.29,15Z"/><path class="cls-5" d="M39.27,16.63c-3.34,0-5.08-3.22-5.16-3.36l.39-.17s1.68,3.19,4.84,3.1l0,.43Z"/></svg>